<svg xmlns="http://www.w3.org/2000/svg" width="250.679" height="250.48" viewBox="0 0 250.679 250.48">
  <g id="Step_04_Box" transform="translate(-29 -33.17)">
    <g id="Group_112" data-name="Group 112" transform="translate(31.539 35.739)">
      <rect id="Rectangle_219" data-name="Rectangle 219" width="245.139" height="0.304" transform="translate(0.15 0)" fill="#9f9f9f"/>
      <rect id="Rectangle_220" data-name="Rectangle 220" width="245.139" height="0.304" transform="translate(0.15 4.903)" fill="#9f9f9f"/>
      <rect id="Rectangle_221" data-name="Rectangle 221" width="245.139" height="0.304" transform="translate(0.15 9.807)" fill="#9f9f9f"/>
      <rect id="Rectangle_222" data-name="Rectangle 222" width="245.139" height="0.304" transform="translate(0.15 14.71)" fill="#9f9f9f"/>
      <rect id="Rectangle_223" data-name="Rectangle 223" width="245.139" height="0.304" transform="translate(0.15 19.611)" fill="#9f9f9f"/>
      <rect id="Rectangle_224" data-name="Rectangle 224" width="245.139" height="0.304" transform="translate(0.15 24.514)" fill="#9f9f9f"/>
      <rect id="Rectangle_225" data-name="Rectangle 225" width="245.139" height="0.304" transform="translate(0.15 29.418)" fill="#9f9f9f"/>
      <rect id="Rectangle_226" data-name="Rectangle 226" width="245.139" height="0.304" transform="translate(0.15 34.321)" fill="#9f9f9f"/>
      <rect id="Rectangle_227" data-name="Rectangle 227" width="245.139" height="0.304" transform="translate(0.15 39.222)" fill="#9f9f9f"/>
      <rect id="Rectangle_228" data-name="Rectangle 228" width="245.139" height="0.304" transform="translate(0.15 44.125)" fill="#9f9f9f"/>
      <rect id="Rectangle_229" data-name="Rectangle 229" width="245.139" height="0.304" transform="translate(0.15 49.029)" fill="#9f9f9f"/>
      <rect id="Rectangle_230" data-name="Rectangle 230" width="245.139" height="0.304" transform="translate(0.15 53.932)" fill="#9f9f9f"/>
      <rect id="Rectangle_231" data-name="Rectangle 231" width="245.139" height="0.304" transform="translate(0.15 58.833)" fill="#9f9f9f"/>
      <rect id="Rectangle_232" data-name="Rectangle 232" width="245.139" height="0.304" transform="translate(0.15 63.736)" fill="#9f9f9f"/>
      <rect id="Rectangle_233" data-name="Rectangle 233" width="245.139" height="0.304" transform="translate(0.15 68.64)" fill="#9f9f9f"/>
      <rect id="Rectangle_234" data-name="Rectangle 234" width="245.139" height="0.304" transform="translate(0.15 73.543)" fill="#9f9f9f"/>
      <rect id="Rectangle_235" data-name="Rectangle 235" width="245.139" height="0.304" transform="translate(0.15 78.447)" fill="#9f9f9f"/>
      <rect id="Rectangle_236" data-name="Rectangle 236" width="245.139" height="0.304" transform="translate(0.15 83.347)" fill="#9f9f9f"/>
      <rect id="Rectangle_237" data-name="Rectangle 237" width="245.139" height="0.304" transform="translate(0.15 88.251)" fill="#9f9f9f"/>
      <rect id="Rectangle_238" data-name="Rectangle 238" width="245.139" height="0.304" transform="translate(0.15 93.154)" fill="#9f9f9f"/>
      <rect id="Rectangle_239" data-name="Rectangle 239" width="245.139" height="0.304" transform="translate(0.15 98.058)" fill="#9f9f9f"/>
      <rect id="Rectangle_240" data-name="Rectangle 240" width="245.139" height="0.304" transform="translate(0.15 102.958)" fill="#9f9f9f"/>
      <rect id="Rectangle_241" data-name="Rectangle 241" width="245.139" height="0.304" transform="translate(0.15 107.862)" fill="#9f9f9f"/>
      <rect id="Rectangle_242" data-name="Rectangle 242" width="245.139" height="0.304" transform="translate(0.15 112.765)" fill="#9f9f9f"/>
      <rect id="Rectangle_243" data-name="Rectangle 243" width="245.139" height="0.304" transform="translate(0.15 117.669)" fill="#9f9f9f"/>
      <rect id="Rectangle_244" data-name="Rectangle 244" width="245.139" height="0.304" transform="translate(0.15 122.569)" fill="#9f9f9f"/>
      <rect id="Rectangle_245" data-name="Rectangle 245" width="245.139" height="0.304" transform="translate(0.15 127.473)" fill="#9f9f9f"/>
      <rect id="Rectangle_246" data-name="Rectangle 246" width="245.139" height="0.304" transform="translate(0.15 132.376)" fill="#9f9f9f"/>
      <rect id="Rectangle_247" data-name="Rectangle 247" width="245.139" height="0.304" transform="translate(0.15 137.28)" fill="#9f9f9f"/>
      <rect id="Rectangle_248" data-name="Rectangle 248" width="245.139" height="0.304" transform="translate(0.15 142.183)" fill="#9f9f9f"/>
      <rect id="Rectangle_249" data-name="Rectangle 249" width="245.139" height="0.304" transform="translate(0.15 147.084)" fill="#9f9f9f"/>
      <rect id="Rectangle_250" data-name="Rectangle 250" width="245.139" height="0.304" transform="translate(0.15 151.987)" fill="#9f9f9f"/>
      <rect id="Rectangle_251" data-name="Rectangle 251" width="245.139" height="0.304" transform="translate(0.15 156.89)" fill="#9f9f9f"/>
      <rect id="Rectangle_252" data-name="Rectangle 252" width="245.139" height="0.304" transform="translate(0.15 161.794)" fill="#9f9f9f"/>
      <rect id="Rectangle_253" data-name="Rectangle 253" width="245.139" height="0.304" transform="translate(0.15 166.695)" fill="#9f9f9f"/>
      <rect id="Rectangle_254" data-name="Rectangle 254" width="245.139" height="0.304" transform="translate(0.15 171.598)" fill="#9f9f9f"/>
      <rect id="Rectangle_255" data-name="Rectangle 255" width="245.139" height="0.304" transform="translate(0.15 176.501)" fill="#9f9f9f"/>
      <rect id="Rectangle_256" data-name="Rectangle 256" width="245.139" height="0.304" transform="translate(0.15 181.405)" fill="#9f9f9f"/>
      <rect id="Rectangle_257" data-name="Rectangle 257" width="245.139" height="0.304" transform="translate(0.15 186.306)" fill="#9f9f9f"/>
      <rect id="Rectangle_258" data-name="Rectangle 258" width="245.139" height="0.304" transform="translate(0.15 191.209)" fill="#9f9f9f"/>
      <rect id="Rectangle_259" data-name="Rectangle 259" width="245.139" height="0.304" transform="translate(0.15 196.112)" fill="#9f9f9f"/>
      <rect id="Rectangle_260" data-name="Rectangle 260" width="245.139" height="0.304" transform="translate(0.15 201.016)" fill="#9f9f9f"/>
      <rect id="Rectangle_261" data-name="Rectangle 261" width="245.139" height="0.304" transform="translate(0.15 205.917)" fill="#9f9f9f"/>
      <rect id="Rectangle_262" data-name="Rectangle 262" width="245.139" height="0.304" transform="translate(0.15 210.82)" fill="#9f9f9f"/>
      <rect id="Rectangle_263" data-name="Rectangle 263" width="245.139" height="0.304" transform="translate(0.15 215.723)" fill="#9f9f9f"/>
      <rect id="Rectangle_264" data-name="Rectangle 264" width="245.139" height="0.304" transform="translate(0.15 220.627)" fill="#9f9f9f"/>
      <rect id="Rectangle_265" data-name="Rectangle 265" width="245.139" height="0.304" transform="translate(0.15 225.53)" fill="#9f9f9f"/>
      <rect id="Rectangle_266" data-name="Rectangle 266" width="245.139" height="0.304" transform="translate(0.15 230.431)" fill="#9f9f9f"/>
      <rect id="Rectangle_267" data-name="Rectangle 267" width="245.139" height="0.304" transform="translate(0.15 235.334)" fill="#9f9f9f"/>
      <rect id="Rectangle_268" data-name="Rectangle 268" width="245.139" height="0.304" transform="translate(0.15 240.238)" fill="#9f9f9f"/>
      <rect id="Rectangle_269" data-name="Rectangle 269" width="245.139" height="0.304" transform="translate(0.15 245.141)" fill="#9f9f9f"/>
      <rect id="Rectangle_270" data-name="Rectangle 270" width="0.304" height="245.139" transform="translate(0 0.153)" fill="#9f9f9f"/>
      <rect id="Rectangle_271" data-name="Rectangle 271" width="0.304" height="245.139" transform="translate(4.903 0.153)" fill="#9f9f9f"/>
      <rect id="Rectangle_272" data-name="Rectangle 272" width="0.304" height="245.139" transform="translate(9.804 0.153)" fill="#9f9f9f"/>
      <rect id="Rectangle_273" data-name="Rectangle 273" width="0.304" height="245.139" transform="translate(14.708 0.153)" fill="#9f9f9f"/>
      <rect id="Rectangle_274" data-name="Rectangle 274" width="0.304" height="245.139" transform="translate(19.611 0.153)" fill="#9f9f9f"/>
      <rect id="Rectangle_275" data-name="Rectangle 275" width="0.304" height="245.139" transform="translate(24.514 0.153)" fill="#9f9f9f"/>
      <rect id="Rectangle_276" data-name="Rectangle 276" width="0.304" height="245.139" transform="translate(29.415 0.153)" fill="#9f9f9f"/>
      <rect id="Rectangle_277" data-name="Rectangle 277" width="0.304" height="245.139" transform="translate(34.319 0.153)" fill="#9f9f9f"/>
      <rect id="Rectangle_278" data-name="Rectangle 278" width="0.304" height="245.139" transform="translate(39.222 0.153)" fill="#9f9f9f"/>
      <rect id="Rectangle_279" data-name="Rectangle 279" width="0.304" height="245.139" transform="translate(44.125 0.153)" fill="#9f9f9f"/>
      <rect id="Rectangle_280" data-name="Rectangle 280" width="0.304" height="245.139" transform="translate(49.026 0.153)" fill="#9f9f9f"/>
      <rect id="Rectangle_281" data-name="Rectangle 281" width="0.304" height="245.139" transform="translate(53.93 0.153)" fill="#9f9f9f"/>
      <rect id="Rectangle_282" data-name="Rectangle 282" width="0.304" height="245.139" transform="translate(58.833 0.153)" fill="#9f9f9f"/>
      <rect id="Rectangle_283" data-name="Rectangle 283" width="0.304" height="245.139" transform="translate(63.736 0.153)" fill="#9f9f9f"/>
      <rect id="Rectangle_284" data-name="Rectangle 284" width="0.304" height="245.139" transform="translate(68.64 0.153)" fill="#9f9f9f"/>
      <rect id="Rectangle_285" data-name="Rectangle 285" width="0.304" height="245.139" transform="translate(73.54 0.153)" fill="#9f9f9f"/>
      <rect id="Rectangle_286" data-name="Rectangle 286" width="0.304" height="245.139" transform="translate(78.444 0.153)" fill="#9f9f9f"/>
      <rect id="Rectangle_287" data-name="Rectangle 287" width="0.304" height="245.139" transform="translate(83.347 0.153)" fill="#9f9f9f"/>
      <rect id="Rectangle_288" data-name="Rectangle 288" width="0.304" height="245.139" transform="translate(88.251 0.153)" fill="#9f9f9f"/>
      <rect id="Rectangle_289" data-name="Rectangle 289" width="0.304" height="245.139" transform="translate(93.151 0.153)" fill="#9f9f9f"/>
      <rect id="Rectangle_290" data-name="Rectangle 290" width="0.304" height="245.139" transform="translate(98.055 0.153)" fill="#9f9f9f"/>
      <rect id="Rectangle_291" data-name="Rectangle 291" width="0.304" height="245.139" transform="translate(102.958 0.153)" fill="#9f9f9f"/>
      <rect id="Rectangle_292" data-name="Rectangle 292" width="0.304" height="245.139" transform="translate(107.862 0.153)" fill="#9f9f9f"/>
      <rect id="Rectangle_293" data-name="Rectangle 293" width="0.304" height="245.139" transform="translate(112.762 0.153)" fill="#9f9f9f"/>
      <rect id="Rectangle_294" data-name="Rectangle 294" width="0.304" height="245.139" transform="translate(117.666 0.153)" fill="#9f9f9f"/>
      <rect id="Rectangle_295" data-name="Rectangle 295" width="0.304" height="245.139" transform="translate(122.569 0.153)" fill="#9f9f9f"/>
      <rect id="Rectangle_296" data-name="Rectangle 296" width="0.304" height="245.139" transform="translate(127.473 0.153)" fill="#9f9f9f"/>
      <rect id="Rectangle_297" data-name="Rectangle 297" width="0.304" height="245.139" transform="translate(132.376 0.153)" fill="#9f9f9f"/>
      <rect id="Rectangle_298" data-name="Rectangle 298" width="0.304" height="245.139" transform="translate(137.277 0.153)" fill="#9f9f9f"/>
      <rect id="Rectangle_299" data-name="Rectangle 299" width="0.304" height="245.139" transform="translate(142.18 0.153)" fill="#9f9f9f"/>
      <rect id="Rectangle_300" data-name="Rectangle 300" width="0.304" height="245.139" transform="translate(147.084 0.153)" fill="#9f9f9f"/>
      <rect id="Rectangle_301" data-name="Rectangle 301" width="0.304" height="245.139" transform="translate(151.987 0.153)" fill="#9f9f9f"/>
      <rect id="Rectangle_302" data-name="Rectangle 302" width="0.304" height="245.139" transform="translate(156.888 0.153)" fill="#9f9f9f"/>
      <rect id="Rectangle_303" data-name="Rectangle 303" width="0.304" height="245.139" transform="translate(161.791 0.153)" fill="#9f9f9f"/>
      <rect id="Rectangle_304" data-name="Rectangle 304" width="0.304" height="245.139" transform="translate(166.695 0.153)" fill="#9f9f9f"/>
      <rect id="Rectangle_305" data-name="Rectangle 305" width="0.304" height="245.139" transform="translate(171.598 0.153)" fill="#9f9f9f"/>
      <rect id="Rectangle_306" data-name="Rectangle 306" width="0.304" height="245.139" transform="translate(176.499 0.153)" fill="#9f9f9f"/>
      <rect id="Rectangle_307" data-name="Rectangle 307" width="0.304" height="245.139" transform="translate(181.402 0.153)" fill="#9f9f9f"/>
      <rect id="Rectangle_308" data-name="Rectangle 308" width="0.304" height="245.139" transform="translate(186.306 0.153)" fill="#9f9f9f"/>
      <rect id="Rectangle_309" data-name="Rectangle 309" width="0.304" height="245.139" transform="translate(191.209 0.153)" fill="#9f9f9f"/>
      <rect id="Rectangle_310" data-name="Rectangle 310" width="0.304" height="245.139" transform="translate(196.11 0.153)" fill="#9f9f9f"/>
      <rect id="Rectangle_311" data-name="Rectangle 311" width="0.304" height="245.139" transform="translate(201.013 0.153)" fill="#9f9f9f"/>
      <rect id="Rectangle_312" data-name="Rectangle 312" width="0.304" height="245.139" transform="translate(205.917 0.153)" fill="#9f9f9f"/>
      <rect id="Rectangle_313" data-name="Rectangle 313" width="0.304" height="245.139" transform="translate(210.82 0.153)" fill="#9f9f9f"/>
      <rect id="Rectangle_314" data-name="Rectangle 314" width="0.304" height="245.139" transform="translate(215.721 0.153)" fill="#9f9f9f"/>
      <rect id="Rectangle_315" data-name="Rectangle 315" width="0.304" height="245.139" transform="translate(220.624 0.153)" fill="#9f9f9f"/>
      <rect id="Rectangle_316" data-name="Rectangle 316" width="0.304" height="245.139" transform="translate(225.528 0.153)" fill="#9f9f9f"/>
      <rect id="Rectangle_317" data-name="Rectangle 317" width="0.304" height="245.139" transform="translate(230.431 0.153)" fill="#9f9f9f"/>
      <rect id="Rectangle_318" data-name="Rectangle 318" width="0.304" height="245.139" transform="translate(235.334 0.153)" fill="#9f9f9f"/>
      <rect id="Rectangle_319" data-name="Rectangle 319" width="0.304" height="245.139" transform="translate(240.235 0.153)" fill="#9f9f9f"/>
      <rect id="Rectangle_320" data-name="Rectangle 320" width="0.304" height="245.139" transform="translate(245.139 0.153)" fill="#9f9f9f"/>
    </g>
    <path id="Path_104" data-name="Path 104" d="M32.087,33.17h-.849v2.238H29v.849h2.238V38.5h.849V36.257h2.238v-.849H32.087Z" fill="#3c3c3b"/>
    <path id="Path_105" data-name="Path 105" d="M945.267,35.408V33.17h-.849v2.238H942.18v.849h2.238V38.5h.849V36.257h2.238v-.849Z" transform="translate(-667.827)" fill="#3c3c3b"/>
    <path id="Path_106" data-name="Path 106" d="M945.267,343.35h-.849v2.238H942.18v.849h2.238v2.238h.849v-2.238h2.238v-.849h-2.238Z" transform="translate(-667.827 -226.841)" fill="#3c3c3b"/>
    <path id="Path_107" data-name="Path 107" d="M32.087,343.35h-.849v2.238H29v.849h2.238v2.238h.849v-2.238h2.238v-.849H32.087Z" transform="translate(0 -226.841)" fill="#3c3c3b"/>
    <path id="Path_108" data-name="Path 108" d="M32.087,635.43h-.849v2.238H29v.849h2.238v2.238h.849v-2.238h2.238v-.849H32.087Z" transform="translate(0 -440.445)" fill="#3c3c3b"/>
    <path id="Path_109" data-name="Path 109" d="M945.267,635.43h-.849v2.238H942.18v.849h2.238v2.238h.849v-2.238h2.238v-.849h-2.238Z" transform="translate(-667.827 -440.445)" fill="#3c3c3b"/>
    <path id="Path_110" data-name="Path 110" d="M945.267,945.61h-.849v2.238H942.18v.849h2.238v2.238h.849V948.7h2.238v-.849h-2.238Z" transform="translate(-667.827 -667.285)" fill="#3c3c3b"/>
    <g id="Group_113" data-name="Group 113" transform="translate(29 278.325)">
      <path id="Path_111" data-name="Path 111" d="M32.087,945.61h-.849v2.238H29v.849h2.238v2.238h.849V948.7h2.238v-.849H32.087Z" transform="translate(-29 -945.61)" fill="#3c3c3b"/>
    </g>
    <g id="Group_114" data-name="Group 114" transform="translate(59.474 84.845)">
      <path id="Path_112" data-name="Path 112" d="M294.292,277.358l-44.45,27.164-72.847-29.633,45.686-18.52Zm1.236-1.233,13.582-32.1L235.053,225.5l-12.375,29.633L196.747,225.5s-48.156,16.051-49.389,16.051,27.164,33.338,27.164,33.338l-32.1,1.236s34.574,18.52,35.447,18.88l6.534,46.56,65.442,40.745,38.276-38.276,4.938-43.215,7.408-1.236,37.043-32.1Z" transform="translate(-142.42 -225.5)" fill="#3c3c3b"/>
    </g>
  </g>
</svg>
