<svg xmlns="http://www.w3.org/2000/svg" viewBox="0 0 204.67 48.43"><defs><style>.cls-1{fill:#d1ff79;}</style></defs><title>Yellow Combined</title><g id="Layer_2" data-name="Layer 2"><g id="Layer_1-2" data-name="Layer 1"><g id="Yellow_Combined" data-name="Yellow Combined"><g id="Group_70" data-name="Group 70"><path id="Path_35" data-name="Path 35" class="cls-1" d="M26.24,14c.24,0,.5-.17.57-.49l1.72-8.07a.55.55,0,0,0-.32-.68c-.24,0-.5.17-.56.5L25.93,13.3a.54.54,0,0,0,.31.68"/></g><g id="Group_71" data-name="Group 71"><path id="Path_36" data-name="Path 36" class="cls-1" d="M28.19,14.61a.55.55,0,0,0,.65-.36l3.94-8.86a.54.54,0,0,0-.17-.73A.54.54,0,0,0,32,5L28,13.88a.53.53,0,0,0,.17.73"/></g><g id="Group_72" data-name="Group 72"><path id="Path_37" data-name="Path 37" class="cls-1" d="M30,15.63a.53.53,0,0,0,.71-.22L38.41,4.79a.53.53,0,0,0,0-.75.54.54,0,0,0-.71.22L29.94,14.88a.54.54,0,0,0,0,.75"/></g><g id="Group_73" data-name="Group 73"><path id="Path_38" data-name="Path 38" class="cls-1" d="M42,17.73a.55.55,0,0,0-.71-.24l-7.4,2.42a.47.47,0,1,0,.28.85l7.4-2.41a.54.54,0,0,0,.43-.62"/></g><g id="Group_74" data-name="Group 74"><path id="Path_39" data-name="Path 39" class="cls-1" d="M36.68,25.31a.55.55,0,0,0,.64-.39c0-.24-.22-.47-.55-.51l-2.19-.23a.55.55,0,0,0-.65.38c0,.25.22.48.55.52Z"/></g><g id="Group_75" data-name="Group 75"><path id="Path_40" data-name="Path 40" class="cls-1" d="M31.13,33.08a.54.54,0,0,0,0-.75l-.48-.65a.54.54,0,0,0-.72-.22.55.55,0,0,0,0,.75l.48.65a.54.54,0,0,0,.71.22"/></g><g id="Group_76" data-name="Group 76"><path id="Path_41" data-name="Path 41" class="cls-1" d="M42.22,29.86a.54.54,0,0,0,.71-.24.54.54,0,0,0-.44-.61l-8.27-2.69a.55.55,0,0,0-.71.24c-.08.24.11.51.43.62Z"/></g><g id="Group_77" data-name="Group 77"><path id="Path_42" data-name="Path 42" class="cls-1" d="M20.23,14.61a.53.53,0,0,0,.17-.73l-3.7-8.3A.53.53,0,0,0,16,5.22a.54.54,0,0,0-.16.73l3.7,8.3a.54.54,0,0,0,.65.36"/></g><g id="Group_78" data-name="Group 78"><path id="Path_43" data-name="Path 43" class="cls-1" d="M26.24,33.1a.54.54,0,0,0-.31.68L27.46,41c.07.32.32.54.57.49a.55.55,0,0,0,.31-.68L26.81,33.6c-.07-.33-.33-.55-.57-.5"/></g><g id="Group_79" data-name="Group 79"><path id="Path_44" data-name="Path 44" class="cls-1" d="M28.18,32.47a.54.54,0,0,0-.16.73l4.16,9.39a.47.47,0,1,0,.83-.36l-4.17-9.39a.55.55,0,0,0-.66-.37"/></g><g id="Group_80" data-name="Group 80"><path id="Path_45" data-name="Path 45" class="cls-1" d="M22.18,33.1c-.25-.05-.5.17-.57.5l-3,14.14a.54.54,0,0,0,.32.68c.24.06.5-.17.56-.49l3-14.15a.54.54,0,0,0-.31-.68"/></g><g id="Group_81" data-name="Group 81"><path id="Path_46" data-name="Path 46" class="cls-1" d="M39.48,22a.55.55,0,0,0-.65-.39L34.48,22c-.33,0-.57.26-.55.51a.55.55,0,0,0,.65.39l4.35-.45c.32,0,.57-.26.55-.5"/></g><g id="Group_82" data-name="Group 82"><path id="Path_47" data-name="Path 47" class="cls-1" d="M22.18,14a.55.55,0,0,0,.31-.68L19.74.5C19.67.18,19.41,0,19.17,0a.53.53,0,0,0-.31.68l2.75,12.8c.07.32.32.54.57.49"/></g><g id="Group_83" data-name="Group 83"><path id="Path_48" data-name="Path 48" class="cls-1" d="M18.46,31.45a.55.55,0,0,0-.72.22l-6.53,8.94a.55.55,0,0,0,0,.75.55.55,0,0,0,.72-.22l6.53-8.94a.53.53,0,0,0,0-.75"/></g><g id="Group_84" data-name="Group 84"><path id="Path_49" data-name="Path 49" class="cls-1" d="M18.46,15.63a.53.53,0,0,0,0-.75L12.33,6.43a.55.55,0,0,0-.72-.22.54.54,0,0,0,0,.75l6.15,8.45a.53.53,0,0,0,.71.22"/></g><g id="Group_85" data-name="Group 85"><path id="Path_50" data-name="Path 50" class="cls-1" d="M16.2,16.93a.53.53,0,0,0,.74.07.53.53,0,0,0-.14-.73l-2.37-2.14a.55.55,0,0,0-.75-.06.54.54,0,0,0,.15.73Z"/></g><g id="Group_86" data-name="Group 86"><path id="Path_51" data-name="Path 51" class="cls-1" d="M9.93,28.18a.54.54,0,0,0,.71.24l3.84-1.24c.31-.1.51-.38.43-.61a.54.54,0,0,0-.71-.25l-3.84,1.25c-.31.1-.51.37-.43.61"/></g><g id="Group_87" data-name="Group 87"><path id="Path_52" data-name="Path 52" class="cls-1" d="M44.76,12.22a.54.54,0,0,0,.3-.69.56.56,0,0,0-.75-.09L33,18a.53.53,0,0,0-.3.68.54.54,0,0,0,.75.09Z"/></g><g id="Group_88" data-name="Group 88"><path id="Path_53" data-name="Path 53" class="cls-1" d="M15.45,29.12a.55.55,0,0,0,.29-.69.53.53,0,0,0-.74-.09L4,34.68a.54.54,0,0,0-.3.68.54.54,0,0,0,.75.09Z"/></g><g id="Group_89" data-name="Group 89"><path id="Path_54" data-name="Path 54" class="cls-1" d="M16.8,30.82a.54.54,0,0,0,.14-.74.53.53,0,0,0-.74.07L5.45,39.83a.53.53,0,0,0-.14.73.54.54,0,0,0,.74-.06Z"/></g><g id="Group_90" data-name="Group 90"><path id="Path_55" data-name="Path 55" class="cls-1" d="M32.68,28.43a.53.53,0,0,0,.29.69l9.52,5.5a.56.56,0,0,0,.75-.09.54.54,0,0,0-.3-.69l-9.52-5.5a.54.54,0,0,0-.74.09"/></g><g id="Group_91" data-name="Group 91"><path id="Path_56" data-name="Path 56" class="cls-1" d="M24.15,37.31a.55.55,0,0,0,.46-.6l0-2.79c0-.33-.2-.6-.45-.6s-.45.27-.45.6l0,2.79c0,.33.2.6.44.6"/></g><g id="Group_92" data-name="Group 92"><path id="Path_57" data-name="Path 57" class="cls-1" d="M32.22,30.15a.55.55,0,0,0-.75-.07.55.55,0,0,0,.15.74L42.37,40.5a.55.55,0,0,0,.75.06.54.54,0,0,0-.15-.73Z"/></g><g id="Group_93" data-name="Group 93"><path id="Path_58" data-name="Path 58" class="cls-1" d="M20.4,33.2a.47.47,0,1,0-.82-.36l-3,6.71a.54.54,0,0,0,.17.73.52.52,0,0,0,.65-.36Z"/></g><g id="Group_94" data-name="Group 94"><path id="Path_59" data-name="Path 59" class="cls-1" d="M15,18.75a.47.47,0,1,0,.44-.78L10,14.84a.54.54,0,0,0-.74.09.54.54,0,0,0,.3.69Z"/></g><g id="Group_95" data-name="Group 95"><path id="Path_60" data-name="Path 60" class="cls-1" d="M24.21,2.46c-.25,0-.45.27-.45.6V13.17c0,.33.2.6.45.6s.45-.27.45-.6V3.06c0-.33-.2-.6-.45-.6"/></g><g id="Group_96" data-name="Group 96"><path id="Path_61" data-name="Path 61" class="cls-1" d="M31.62,16.26a.55.55,0,0,0-.15.74.55.55,0,0,0,.75-.07l8.45-7.61a.55.55,0,0,0,.15-.74.55.55,0,0,0-.75.07Z"/></g><g id="Group_97" data-name="Group 97"><path id="Path_62" data-name="Path 62" class="cls-1" d="M2.87,25.76a.55.55,0,0,0,.64.38L13.94,25a.47.47,0,1,0-.1-.89L3.42,25.24c-.33,0-.58.27-.55.52"/></g><g id="Group_98" data-name="Group 98"><path id="Path_63" data-name="Path 63" class="cls-1" d="M13.84,22.9a.47.47,0,1,0,.1-.89L2,20.7a.54.54,0,0,0-.64.38c0,.25.22.48.55.52Z"/></g><g id="Group_99" data-name="Group 99"><path id="Path_64" data-name="Path 64" class="cls-1" d="M14.91,20.52c.08-.23-.12-.51-.43-.61L.73,15.44a.54.54,0,0,0-.71.24c-.08.24.11.51.43.61L14.2,20.76a.54.54,0,0,0,.71-.24"/></g><g id="Group_100" data-name="Group 100"><path id="Path_65" data-name="Path 65" class="cls-1" d="M60.8,30.39h8.62c4.75,0,7.34-1.1,7.34-4.18v0c0-2-1-2.86-3.4-3.24,2-.38,3-1.23,3-3v-.06c0-2.8-2.09-3.87-7.14-3.87H60.8Zm4.81-10.92H69c1.75,0,2.4.22,2.4,1.08v0c0,.85-.82,1.07-2.33,1.07H65.61Zm0,4.92h3.2c2.2,0,2.78.23,2.78,1.15v0c0,.57-.24.89-1.09,1a10.94,10.94,0,0,1-1.81.12H65.61Zm23.75,3.53,1,2.47h5L89,16H83.42L76.88,30.39H82l1-2.47Zm-3.2-7.63,1.77,4.2H84.41ZM96.34,16V30.39h7.47c3.58,0,6.16-1,7.57-3.11a7.41,7.41,0,0,0,1-4v-.06c0-4.91-3.16-7.22-8.71-7.22ZM101.15,20h2.28c2.94,0,4,.87,4,3.14v0c0,2.15-1,3.08-3.9,3.08h-2.36Zm23.33,7.89,1,2.47h5.05L124.08,16h-5.54L112,30.39h5.09l1-2.47Zm-3.2-7.63,1.77,4.2h-3.52Zm10.18,10.1h8.62c4.75,0,7.34-1.1,7.34-4.18v0c0-2-1-2.86-3.4-3.24,2-.38,3-1.23,3-3v-.06c0-2.8-2.09-3.87-7.14-3.87h-8.42Zm4.81-10.92h3.36c1.75,0,2.4.22,2.4,1.08v0c0,.85-.83,1.07-2.34,1.07h-3.42Zm0,4.92h3.2c2.2,0,2.78.23,2.78,1.15v0c0,.57-.24.89-1.09,1a10.94,10.94,0,0,1-1.81.12h-3.08Zm21,6.4c3.5,0,6.16-1.06,7.61-3.3a7.64,7.64,0,0,0,1.09-4.2v-.08a6.93,6.93,0,0,0-4.17-6.72,10.78,10.78,0,0,0-4.49-.88c-3.46,0-6.14,1.22-7.62,3.52a7.43,7.43,0,0,0-1.11,4.1v0c0,3.47,1.45,5.64,4.06,6.73a12.2,12.2,0,0,0,4.63.79m0-4.26c-2.29,0-3.66-1.07-3.66-3.26v0c0-2.3,1.39-3.38,3.68-3.38s3.69,1,3.69,3.4-1.41,3.26-3.7,3.26m19,4.26c3.5,0,6.16-1.06,7.61-3.3a7.64,7.64,0,0,0,1.09-4.2v-.08a7,7,0,0,0-4.17-6.72,10.84,10.84,0,0,0-4.49-.88c-3.46,0-6.14,1.22-7.63,3.52a7.42,7.42,0,0,0-1.1,4.1v0c0,3.47,1.45,5.64,4.06,6.73a12.2,12.2,0,0,0,4.63.79m0-4.26c-2.29,0-3.66-1.07-3.66-3.26v0c0-2.3,1.39-3.38,3.68-3.38s3.68,1,3.68,3.4-1.4,3.26-3.7,3.26m15.36-4.11L195.5,27h.34l4.08-4.59v8h4.75V16h-4.26l-4.63,5.4L191.25,16h-4.42V30.39h4.77Z"/></g></g></g></g></svg>