<svg xmlns="http://www.w3.org/2000/svg" xmlns:xlink="http://www.w3.org/1999/xlink" width="204.679" height="48.428" viewBox="0 0 204.679 48.428"><defs><clipPath id="a"><path d="M0,0H204.679V-48.428H0Z" fill="none"/></clipPath></defs><g transform="translate(0 48.428)" clip-path="url(#a)"><g transform="translate(26.243 -34.452)"><path d="M0,0C.242.051.5-.171.565-.493L2.284-8.556a.541.541,0,0,0-.314-.68c-.242-.052-.5.17-.565.493L-.315-.68A.543.543,0,0,0,0,0" fill="#d1ff79"/></g><g transform="translate(28.186 -33.82)"><path d="M0,0A.542.542,0,0,0,.654-.365L4.592-9.22a.542.542,0,0,0-.167-.731.542.542,0,0,0-.654.365L-.167-.731A.543.543,0,0,0,0,0" fill="#d1ff79"/></g><g transform="translate(29.956 -32.798)"><path d="M0,0A.544.544,0,0,0,.717-.221l7.74-10.624a.541.541,0,0,0-.01-.749.544.544,0,0,0-.717.221L-.011-.749A.542.542,0,0,0,0,0" fill="#d1ff79"/></g><g transform="translate(42.044 -30.697)"><path d="M0,0A.543.543,0,0,0-.709-.242l-7.4,2.414c-.313.1-.508.379-.431.614a.541.541,0,0,0,.709.241L-.431.614C-.118.511.076.235,0,0" fill="#d1ff79"/></g><g transform="translate(36.676 -23.123)"><path d="M0,0A.543.543,0,0,0,.644-.384C.67-.63.422-.86.094-.894L-2.1-1.128a.542.542,0,0,0-.644.384c-.026.246.221.476.549.511Z" fill="#d1ff79"/></g><g transform="translate(31.134 -15.355)"><path d="M0,0A.544.544,0,0,0,.012-.75L-.463-1.4a.541.541,0,0,0-.716-.221.543.543,0,0,0-.011.75l.474.655A.543.543,0,0,0,0,0" fill="#d1ff79"/></g><g transform="translate(42.216 -18.571)"><path d="M0,0A.543.543,0,0,0,.71-.243.542.542,0,0,0,.278-.855L-8-3.541a.545.545,0,0,0-.71.243c-.076.235.118.511.432.613Z" fill="#d1ff79"/></g><g transform="translate(20.234 -33.82)"><path d="M0,0A.542.542,0,0,0,.166-.731l-3.7-8.3a.543.543,0,0,0-.655-.365.542.542,0,0,0-.166.731l3.7,8.3A.543.543,0,0,0,0,0" fill="#d1ff79"/></g><g transform="translate(26.242 -15.328)"><path d="M0,0A.542.542,0,0,0-.315.68L1.22,7.923c.068.323.322.545.564.494a.544.544,0,0,0,.315-.68L.564.493C.5.171.242-.051,0,0" fill="#d1ff79"/></g><g transform="translate(28.185 -15.959)"><path d="M0,0A.543.543,0,0,0-.167.731L4,10.121a.542.542,0,0,0,.654.365.543.543,0,0,0,.167-.731L.654.366A.542.542,0,0,0,0,0" fill="#d1ff79"/></g><g transform="translate(22.177 -15.328)"><path d="M0,0C-.242-.051-.5.17-.565.493L-3.572,14.64a.545.545,0,0,0,.316.681c.242.051.5-.171.564-.494L.315.68A.542.542,0,0,0,0,0" fill="#d1ff79"/></g><g transform="translate(39.476 -26.476)"><path d="M0,0A.545.545,0,0,0-.644-.386L-4.995.057c-.328.034-.575.262-.549.508A.546.546,0,0,0-4.9.952L-.55.508C-.222.474.026.246,0,0" fill="#d1ff79"/></g><g transform="translate(22.176 -34.451)"><path d="M0,0A.54.54,0,0,0,.313-.68l-2.753-12.8c-.07-.323-.324-.545-.566-.493a.541.541,0,0,0-.314.68L-.566-.493C-.5-.17-.242.051,0,0" fill="#d1ff79"/></g><g transform="translate(18.463 -16.982)"><path d="M0,0A.546.546,0,0,0-.718.22L-7.249,9.163a.541.541,0,0,0,.009.749.546.546,0,0,0,.718-.22L.01.749A.541.541,0,0,0,0,0" fill="#d1ff79"/></g><g transform="translate(18.464 -32.798)"><path d="M0,0A.543.543,0,0,0,.011-.75L-6.137-9.2a.544.544,0,0,0-.717-.221.542.542,0,0,0-.011.749L-.717-.221A.544.544,0,0,0,0,0" fill="#d1ff79"/></g><g transform="translate(16.198 -31.497)"><path d="M0,0A.543.543,0,0,0,.747.067.542.542,0,0,0,.6-.668L-1.767-2.8a.544.544,0,0,0-.748-.067.542.542,0,0,0,.146.735Z" fill="#d1ff79"/></g><g transform="translate(9.931 -20.253)"><path d="M0,0A.543.543,0,0,0,.71.242L4.55-1c.314-.1.508-.378.432-.613a.545.545,0,0,0-.71-.243L.432-.613C.118-.511-.076-.235,0,0" fill="#d1ff79"/></g><g transform="translate(44.762 -36.212)"><path d="M0,0A.541.541,0,0,0,.295-.688a.543.543,0,0,0-.744-.09L-11.791,5.746a.542.542,0,0,0-.3.689.544.544,0,0,0,.745.09Z" fill="#d1ff79"/></g><g transform="translate(15.448 -19.315)"><path d="M0,0A.541.541,0,0,0,.295-.688.545.545,0,0,0-.45-.779L-11.484,5.559a.541.541,0,0,0-.3.688.545.545,0,0,0,.745.091Z" fill="#d1ff79"/></g><g transform="translate(16.8 -17.613)"><path d="M0,0A.544.544,0,0,0,.145-.736.544.544,0,0,0-.6-.668L-11.35,9.009a.543.543,0,0,0-.144.736.543.543,0,0,0,.746-.068Z" fill="#d1ff79"/></g><g transform="translate(32.676 -20.002)"><path d="M0,0A.542.542,0,0,0,.295.689l9.524,5.5a.543.543,0,0,0,.744-.09.542.542,0,0,0-.3-.689L.744-.09A.544.544,0,0,0,0,0" fill="#d1ff79"/></g><g transform="translate(24.155 -11.125)"><path d="M0,0C.247,0,.453-.27.457-.6L.491-3.389c0-.33-.195-.6-.442-.6s-.453.27-.457.6L-.442-.6c0,.33.2.6.442.6" fill="#d1ff79"/></g><g transform="translate(32.221 -18.281)"><path d="M0,0A.543.543,0,0,0-.747-.067.543.543,0,0,0-.6.668l10.748,9.678a.544.544,0,0,0,.747.067.544.544,0,0,0-.145-.736Z" fill="#d1ff79"/></g><g transform="translate(20.398 -15.23)"><path d="M0,0A.541.541,0,0,0-.165-.73a.545.545,0,0,0-.657.364L-3.835,6.352a.541.541,0,0,0,.165.73.544.544,0,0,0,.656-.364Z" fill="#d1ff79"/></g><g transform="translate(14.998 -29.685)"><path d="M0,0A.545.545,0,0,0,.745-.091a.541.541,0,0,0-.3-.688L-5.014-3.907a.545.545,0,0,0-.745.091.539.539,0,0,0,.3.687Z" fill="#d1ff79"/></g><g transform="translate(24.21 -45.974)"><path d="M0,0C-.247,0-.45.27-.45.6V10.709c0,.33.2.6.45.6s.45-.27.45-.6V.6C.45.27.247,0,0,0" fill="#d1ff79"/></g><g transform="translate(31.619 -32.167)"><path d="M0,0A.544.544,0,0,0-.145.736.544.544,0,0,0,.6.668L9.053-6.949A.544.544,0,0,0,9.2-7.685a.543.543,0,0,0-.747.068Z" fill="#d1ff79"/></g><g transform="translate(2.867 -22.676)"><path d="M0,0A.539.539,0,0,0,.643.381L11.072-.771c.328-.036.575-.267.549-.513a.539.539,0,0,0-.643-.381L.549-.513C.221-.477-.026-.246,0,0" fill="#d1ff79"/></g><g transform="translate(13.845 -25.531)"><path d="M0,0A.539.539,0,0,0,.643-.382C.669-.628.422-.858.094-.894L-11.861-2.2a.541.541,0,0,0-.643.383c-.026.246.221.476.549.512Z" fill="#d1ff79"/></g><g transform="translate(14.913 -27.911)"><path d="M0,0C.076-.235-.118-.511-.432-.613L-14.187-5.082a.543.543,0,0,0-.709.242c-.077.235.118.511.431.613L-.71.242A.543.543,0,0,0,0,0" fill="#d1ff79"/></g><g transform="translate(60.803 -18.037)"><path d="M0,0H8.614c4.749,0,7.345-1.107,7.345-4.186v-.04c0-1.993-1.026-2.858-3.4-3.241,1.973-.382,3-1.227,3-3.038v-.061c0-2.8-2.093-3.864-7.145-3.864H0ZM4.81-10.928H8.171c1.751,0,2.4.221,2.4,1.087v.04c0,.845-.825,1.067-2.335,1.067H4.81ZM4.81-6h3.2c2.194,0,2.777.221,2.777,1.147v.04c0,.564-.241.886-1.087,1.026a9.945,9.945,0,0,1-1.811.121H4.81ZM28.558-2.475,29.6,0h5.052l-6.5-14.43H22.621L16.08,0h5.092L22.2-2.475Zm-3.2-7.628L27.129-5.9H23.607ZM35.541-14.43V0h7.467c3.582,0,6.158-1.006,7.567-3.119A7.388,7.388,0,0,0,51.6-7.145V-7.2c0-4.911-3.16-7.225-8.714-7.225Zm4.81,4.065h2.274c2.938,0,3.985.866,3.985,3.14v.04c0,2.154-1.026,3.079-3.9,3.079H40.351Zm23.325,7.89L64.723,0h5.051l-6.5-14.43H57.739L51.2,0H56.29l1.027-2.475Zm-3.2-7.628L62.248-5.9H58.726ZM70.66,0h8.613c4.75,0,7.346-1.107,7.346-4.186v-.04c0-1.993-1.026-2.858-3.4-3.241,1.972-.382,3-1.227,3-3.038v-.061c0-2.8-2.093-3.864-7.145-3.864H70.66Zm4.81-10.928h3.361c1.751,0,2.395.221,2.395,1.087v.04c0,.845-.825,1.067-2.335,1.067H75.47ZM75.47-6h3.2c2.193,0,2.777.221,2.777,1.147v.04c0,.564-.241.886-1.087,1.026a9.945,9.945,0,0,1-1.811.121H75.47ZM96.5.4c3.5,0,6.159-1.067,7.608-3.3A7.6,7.6,0,0,0,105.195-7.1v-.081a6.941,6.941,0,0,0-4.166-6.722,10.834,10.834,0,0,0-4.488-.885c-3.462,0-6.139,1.227-7.628,3.522a7.443,7.443,0,0,0-1.107,4.105v.041c0,3.461,1.449,5.635,4.066,6.721A12.1,12.1,0,0,0,96.5.4m-.02-4.267c-2.294,0-3.662-1.067-3.662-3.26v-.021c0-2.294,1.388-3.381,3.682-3.381,2.275,0,3.683,1.027,3.683,3.4,0,2.314-1.408,3.26-3.7,3.26M115.458.4c3.5,0,6.159-1.067,7.608-3.3A7.6,7.6,0,0,0,124.153-7.1v-.081a6.941,6.941,0,0,0-4.166-6.722,10.834,10.834,0,0,0-4.488-.885c-3.462,0-6.139,1.227-7.628,3.522a7.443,7.443,0,0,0-1.107,4.105v.041c0,3.461,1.449,5.635,4.065,6.721A12.109,12.109,0,0,0,115.458.4m-.02-4.267c-2.294,0-3.663-1.067-3.663-3.26v-.021c0-2.294,1.389-3.381,3.683-3.381,2.275,0,3.683,1.027,3.683,3.4,0,2.314-1.408,3.26-3.7,3.26M130.794-7.97l3.9,4.549h.342l4.086-4.589V0h4.749V-14.43h-4.266L134.98-9.036l-4.528-5.394h-4.428V0h4.77Z" fill="#d1ff79"/></g></g></svg>