<svg xmlns="http://www.w3.org/2000/svg" xmlns:xlink="http://www.w3.org/1999/xlink" width="755.346" height="79.772" viewBox="0 0 755.346 79.772">
  <defs>
    <clipPath id="clip-path">
      <path id="Path_141" data-name="Path 141" d="M0,0H755.346V-79.772H0Z" fill="none"/>
    </clipPath>
  </defs>
  <g id="Group_123" data-name="Group 123" transform="translate(0 79.772)" clip-path="url(#clip-path)">
    <g id="Group_122" data-name="Group 122" transform="translate(0 -2.113)">
      <path id="Path_140" data-name="Path 140" d="M0,0H45.222C70.157,0,83.787-5.811,83.787-21.977v-.211c0-10.46-5.388-15-17.856-17.011,10.354-2.008,15.743-6.446,15.743-15.955v-.317c0-14.686-10.988-20.286-37.509-20.286H0ZM25.252-57.373H42.9c9.193,0,12.574,1.163,12.574,5.706v.211c0,4.438-4.332,5.6-12.257,5.6H25.252Zm0,25.887h16.8c11.517,0,14.581,1.162,14.581,6.022v.212c0,2.958-1.268,4.649-5.706,5.388a52.47,52.47,0,0,1-9.509.634H25.252ZM149.928-13l5.494,13h26.52L147.815-75.757H118.759L84.419,0h26.732l5.389-13Zm-16.8-40.045,9.3,22.083h-18.49Zm53.463-22.716V0h39.2c18.807,0,32.331-5.283,39.727-16.377,3.593-5.706,5.389-12.679,5.389-21.132v-.317c0-25.78-16.588-37.931-45.75-37.931Zm25.252,21.343h11.939c15.426,0,20.921,4.543,20.921,16.483v.211c0,11.305-5.389,16.166-20.5,16.166H211.843ZM334.3-13,339.8,0h26.52L332.188-75.757H303.132L268.793,0h26.732l5.388-13ZM317.5-53.041l9.3,22.083H308.31ZM370.964,0h45.222c24.936,0,38.565-5.811,38.565-21.977v-.211c0-10.46-5.388-15-17.856-17.011,10.355-2.008,15.743-6.446,15.743-15.955v-.317c0-14.686-10.988-20.286-37.508-20.286H370.964Zm25.253-57.373h17.645c9.192,0,12.573,1.163,12.573,5.706v.211c0,4.438-4.332,5.6-12.256,5.6H396.217Zm0,25.887h16.8c11.517,0,14.581,1.162,14.581,6.022v.212c0,2.958-1.268,4.649-5.7,5.388a52.483,52.483,0,0,1-9.51.634H396.217Zm110.411,33.6c18.384,0,32.331-5.6,39.939-17.328,3.8-5.917,5.7-13.207,5.7-22.082v-.423c0-17.011-8.135-28.951-21.871-35.29a56.817,56.817,0,0,0-23.562-4.649c-18.173,0-32.226,6.445-40.044,18.49-3.8,5.917-5.812,13.1-5.812,21.555v.211c0,18.173,7.608,29.584,21.343,35.29,6.974,2.853,15,4.226,24.3,4.226m-.106-22.4c-12.045,0-19.23-5.6-19.23-17.117v-.106c0-12.045,7.291-17.75,19.336-17.75,11.939,0,19.335,5.388,19.335,17.856,0,12.151-7.4,17.117-19.441,17.117m99.635,22.4c18.384,0,32.331-5.6,39.939-17.328,3.8-5.917,5.705-13.207,5.705-22.082v-.423c0-17.011-8.135-28.951-21.871-35.29a56.82,56.82,0,0,0-23.562-4.649c-18.173,0-32.226,6.445-40.045,18.49-3.8,5.917-5.811,13.1-5.811,21.555v.211c0,18.173,7.608,29.584,21.343,35.29,6.974,2.853,15,4.226,24.3,4.226m-.106-22.4c-12.045,0-19.23-5.6-19.23-17.117v-.106c0-12.045,7.291-17.75,19.336-17.75,11.939,0,19.335,5.388,19.335,17.856,0,12.151-7.4,17.117-19.441,17.117m80.617-21.555,20.5,23.879h1.8l21.449-24.09V0h24.935V-75.757h-22.4l-24.3,28.316L684.872-75.757H661.627V0h25.041Z" fill="#3c3c3b"/>
    </g>
  </g>
</svg>
