<svg xmlns="http://www.w3.org/2000/svg" width="250.748" height="250.549" viewBox="0 0 250.748 250.549">
  <g id="Step_04_Plane" transform="translate(-29 -33.17)">
    <g id="Group_115" data-name="Group 115" transform="translate(31.54 35.739)">
      <rect id="Rectangle_321" data-name="Rectangle 321" width="245.206" height="0.304" transform="translate(0.151)" fill="#9f9f9f"/>
      <rect id="Rectangle_322" data-name="Rectangle 322" width="245.206" height="0.304" transform="translate(0.151 4.905)" fill="#9f9f9f"/>
      <rect id="Rectangle_323" data-name="Rectangle 323" width="245.206" height="0.304" transform="translate(0.151 9.81)" fill="#9f9f9f"/>
      <rect id="Rectangle_324" data-name="Rectangle 324" width="245.206" height="0.304" transform="translate(0.151 14.714)" fill="#9f9f9f"/>
      <rect id="Rectangle_325" data-name="Rectangle 325" width="245.206" height="0.304" transform="translate(0.151 19.616)" fill="#9f9f9f"/>
      <rect id="Rectangle_326" data-name="Rectangle 326" width="245.206" height="0.304" transform="translate(0.151 24.521)" fill="#9f9f9f"/>
      <rect id="Rectangle_327" data-name="Rectangle 327" width="245.206" height="0.304" transform="translate(0.151 29.426)" fill="#9f9f9f"/>
      <rect id="Rectangle_328" data-name="Rectangle 328" width="245.206" height="0.304" transform="translate(0.151 34.331)" fill="#9f9f9f"/>
      <rect id="Rectangle_329" data-name="Rectangle 329" width="245.206" height="0.304" transform="translate(0.151 39.233)" fill="#9f9f9f"/>
      <rect id="Rectangle_330" data-name="Rectangle 330" width="245.206" height="0.304" transform="translate(0.151 44.137)" fill="#9f9f9f"/>
      <rect id="Rectangle_331" data-name="Rectangle 331" width="245.206" height="0.304" transform="translate(0.151 49.042)" fill="#9f9f9f"/>
      <rect id="Rectangle_332" data-name="Rectangle 332" width="245.206" height="0.304" transform="translate(0.151 53.947)" fill="#9f9f9f"/>
      <rect id="Rectangle_333" data-name="Rectangle 333" width="245.206" height="0.304" transform="translate(0.151 58.849)" fill="#9f9f9f"/>
      <rect id="Rectangle_334" data-name="Rectangle 334" width="245.206" height="0.304" transform="translate(0.151 63.754)" fill="#9f9f9f"/>
      <rect id="Rectangle_335" data-name="Rectangle 335" width="245.206" height="0.304" transform="translate(0.151 68.659)" fill="#9f9f9f"/>
      <rect id="Rectangle_336" data-name="Rectangle 336" width="245.206" height="0.304" transform="translate(0.151 73.563)" fill="#9f9f9f"/>
      <rect id="Rectangle_337" data-name="Rectangle 337" width="245.206" height="0.304" transform="translate(0.151 78.468)" fill="#9f9f9f"/>
      <rect id="Rectangle_338" data-name="Rectangle 338" width="245.206" height="0.304" transform="translate(0.151 83.37)" fill="#9f9f9f"/>
      <rect id="Rectangle_339" data-name="Rectangle 339" width="245.206" height="0.304" transform="translate(0.151 88.275)" fill="#9f9f9f"/>
      <rect id="Rectangle_340" data-name="Rectangle 340" width="245.206" height="0.304" transform="translate(0.151 93.18)" fill="#9f9f9f"/>
      <rect id="Rectangle_341" data-name="Rectangle 341" width="245.206" height="0.304" transform="translate(0.151 98.084)" fill="#9f9f9f"/>
      <rect id="Rectangle_342" data-name="Rectangle 342" width="245.206" height="0.304" transform="translate(0.151 102.987)" fill="#9f9f9f"/>
      <rect id="Rectangle_343" data-name="Rectangle 343" width="245.206" height="0.304" transform="translate(0.151 107.891)" fill="#9f9f9f"/>
      <rect id="Rectangle_344" data-name="Rectangle 344" width="245.206" height="0.304" transform="translate(0.151 112.796)" fill="#9f9f9f"/>
      <rect id="Rectangle_345" data-name="Rectangle 345" width="245.206" height="0.304" transform="translate(0.151 117.701)" fill="#9f9f9f"/>
      <rect id="Rectangle_346" data-name="Rectangle 346" width="245.206" height="0.304" transform="translate(0.151 122.603)" fill="#9f9f9f"/>
      <rect id="Rectangle_347" data-name="Rectangle 347" width="245.206" height="0.304" transform="translate(0.151 127.508)" fill="#9f9f9f"/>
      <rect id="Rectangle_348" data-name="Rectangle 348" width="245.206" height="0.304" transform="translate(0.151 132.412)" fill="#9f9f9f"/>
      <rect id="Rectangle_349" data-name="Rectangle 349" width="245.206" height="0.304" transform="translate(0.151 137.317)" fill="#9f9f9f"/>
      <rect id="Rectangle_350" data-name="Rectangle 350" width="245.206" height="0.304" transform="translate(0.151 142.222)" fill="#9f9f9f"/>
      <rect id="Rectangle_351" data-name="Rectangle 351" width="245.206" height="0.304" transform="translate(0.151 147.124)" fill="#9f9f9f"/>
      <rect id="Rectangle_352" data-name="Rectangle 352" width="245.206" height="0.304" transform="translate(0.151 152.029)" fill="#9f9f9f"/>
      <rect id="Rectangle_353" data-name="Rectangle 353" width="245.206" height="0.304" transform="translate(0.151 156.934)" fill="#9f9f9f"/>
      <rect id="Rectangle_354" data-name="Rectangle 354" width="245.206" height="0.304" transform="translate(0.151 161.838)" fill="#9f9f9f"/>
      <rect id="Rectangle_355" data-name="Rectangle 355" width="245.206" height="0.304" transform="translate(0.151 166.74)" fill="#9f9f9f"/>
      <rect id="Rectangle_356" data-name="Rectangle 356" width="245.206" height="0.304" transform="translate(0.151 171.645)" fill="#9f9f9f"/>
      <rect id="Rectangle_357" data-name="Rectangle 357" width="245.206" height="0.304" transform="translate(0.151 176.55)" fill="#9f9f9f"/>
      <rect id="Rectangle_358" data-name="Rectangle 358" width="245.206" height="0.304" transform="translate(0.151 181.455)" fill="#9f9f9f"/>
      <rect id="Rectangle_359" data-name="Rectangle 359" width="245.206" height="0.304" transform="translate(0.151 186.357)" fill="#9f9f9f"/>
      <rect id="Rectangle_360" data-name="Rectangle 360" width="245.206" height="0.304" transform="translate(0.151 191.262)" fill="#9f9f9f"/>
      <rect id="Rectangle_361" data-name="Rectangle 361" width="245.206" height="0.304" transform="translate(0.151 196.166)" fill="#9f9f9f"/>
      <rect id="Rectangle_362" data-name="Rectangle 362" width="245.206" height="0.304" transform="translate(0.151 201.071)" fill="#9f9f9f"/>
      <rect id="Rectangle_363" data-name="Rectangle 363" width="245.206" height="0.304" transform="translate(0.151 205.973)" fill="#9f9f9f"/>
      <rect id="Rectangle_364" data-name="Rectangle 364" width="245.206" height="0.304" transform="translate(0.151 210.878)" fill="#9f9f9f"/>
      <rect id="Rectangle_365" data-name="Rectangle 365" width="245.206" height="0.304" transform="translate(0.151 215.783)" fill="#9f9f9f"/>
      <rect id="Rectangle_366" data-name="Rectangle 366" width="245.206" height="0.304" transform="translate(0.151 220.687)" fill="#9f9f9f"/>
      <rect id="Rectangle_367" data-name="Rectangle 367" width="245.206" height="0.304" transform="translate(0.151 225.592)" fill="#9f9f9f"/>
      <rect id="Rectangle_368" data-name="Rectangle 368" width="245.206" height="0.304" transform="translate(0.151 230.494)" fill="#9f9f9f"/>
      <rect id="Rectangle_369" data-name="Rectangle 369" width="245.206" height="0.304" transform="translate(0.151 235.399)" fill="#9f9f9f"/>
      <rect id="Rectangle_370" data-name="Rectangle 370" width="245.206" height="0.304" transform="translate(0.151 240.304)" fill="#9f9f9f"/>
      <rect id="Rectangle_371" data-name="Rectangle 371" width="245.206" height="0.304" transform="translate(0.151 245.209)" fill="#9f9f9f"/>
      <rect id="Rectangle_372" data-name="Rectangle 372" width="0.304" height="245.206" transform="translate(0 0.153)" fill="#9f9f9f"/>
      <rect id="Rectangle_373" data-name="Rectangle 373" width="0.304" height="245.206" transform="translate(4.905 0.153)" fill="#9f9f9f"/>
      <rect id="Rectangle_374" data-name="Rectangle 374" width="0.304" height="245.206" transform="translate(9.807 0.153)" fill="#9f9f9f"/>
      <rect id="Rectangle_375" data-name="Rectangle 375" width="0.304" height="245.206" transform="translate(14.712 0.153)" fill="#9f9f9f"/>
      <rect id="Rectangle_376" data-name="Rectangle 376" width="0.304" height="245.206" transform="translate(19.616 0.153)" fill="#9f9f9f"/>
      <rect id="Rectangle_377" data-name="Rectangle 377" width="0.304" height="245.206" transform="translate(24.521 0.153)" fill="#9f9f9f"/>
      <rect id="Rectangle_378" data-name="Rectangle 378" width="0.304" height="245.206" transform="translate(29.423 0.153)" fill="#9f9f9f"/>
      <rect id="Rectangle_379" data-name="Rectangle 379" width="0.304" height="245.206" transform="translate(34.328 0.153)" fill="#9f9f9f"/>
      <rect id="Rectangle_380" data-name="Rectangle 380" width="0.304" height="245.206" transform="translate(39.233 0.153)" fill="#9f9f9f"/>
      <rect id="Rectangle_381" data-name="Rectangle 381" width="0.304" height="245.206" transform="translate(44.137 0.153)" fill="#9f9f9f"/>
      <rect id="Rectangle_382" data-name="Rectangle 382" width="0.304" height="245.206" transform="translate(49.04 0.153)" fill="#9f9f9f"/>
      <rect id="Rectangle_383" data-name="Rectangle 383" width="0.304" height="245.206" transform="translate(53.944 0.153)" fill="#9f9f9f"/>
      <rect id="Rectangle_384" data-name="Rectangle 384" width="0.304" height="245.206" transform="translate(58.849 0.153)" fill="#9f9f9f"/>
      <rect id="Rectangle_385" data-name="Rectangle 385" width="0.304" height="245.206" transform="translate(63.754 0.153)" fill="#9f9f9f"/>
      <rect id="Rectangle_386" data-name="Rectangle 386" width="0.304" height="245.206" transform="translate(68.659 0.153)" fill="#9f9f9f"/>
      <rect id="Rectangle_387" data-name="Rectangle 387" width="0.304" height="245.206" transform="translate(73.561 0.153)" fill="#9f9f9f"/>
      <rect id="Rectangle_388" data-name="Rectangle 388" width="0.304" height="245.206" transform="translate(78.465 0.153)" fill="#9f9f9f"/>
      <rect id="Rectangle_389" data-name="Rectangle 389" width="0.304" height="245.206" transform="translate(83.37 0.153)" fill="#9f9f9f"/>
      <rect id="Rectangle_390" data-name="Rectangle 390" width="0.304" height="245.206" transform="translate(88.275 0.153)" fill="#9f9f9f"/>
      <rect id="Rectangle_391" data-name="Rectangle 391" width="0.304" height="245.206" transform="translate(93.177 0.153)" fill="#9f9f9f"/>
      <rect id="Rectangle_392" data-name="Rectangle 392" width="0.304" height="245.206" transform="translate(98.082 0.153)" fill="#9f9f9f"/>
      <rect id="Rectangle_393" data-name="Rectangle 393" width="0.304" height="245.206" transform="translate(102.987 0.153)" fill="#9f9f9f"/>
      <rect id="Rectangle_394" data-name="Rectangle 394" width="0.304" height="245.206" transform="translate(107.891 0.153)" fill="#9f9f9f"/>
      <rect id="Rectangle_395" data-name="Rectangle 395" width="0.304" height="245.206" transform="translate(112.793 0.153)" fill="#9f9f9f"/>
      <rect id="Rectangle_396" data-name="Rectangle 396" width="0.304" height="245.206" transform="translate(117.698 0.153)" fill="#9f9f9f"/>
      <rect id="Rectangle_397" data-name="Rectangle 397" width="0.304" height="245.206" transform="translate(122.603 0.153)" fill="#9f9f9f"/>
      <rect id="Rectangle_398" data-name="Rectangle 398" width="0.304" height="245.206" transform="translate(127.508 0.153)" fill="#9f9f9f"/>
      <rect id="Rectangle_399" data-name="Rectangle 399" width="0.304" height="245.206" transform="translate(132.412 0.153)" fill="#9f9f9f"/>
      <rect id="Rectangle_400" data-name="Rectangle 400" width="0.304" height="245.206" transform="translate(137.315 0.153)" fill="#9f9f9f"/>
      <rect id="Rectangle_401" data-name="Rectangle 401" width="0.304" height="245.206" transform="translate(142.219 0.153)" fill="#9f9f9f"/>
      <rect id="Rectangle_402" data-name="Rectangle 402" width="0.304" height="245.206" transform="translate(147.124 0.153)" fill="#9f9f9f"/>
      <rect id="Rectangle_403" data-name="Rectangle 403" width="0.304" height="245.206" transform="translate(152.029 0.153)" fill="#9f9f9f"/>
      <rect id="Rectangle_404" data-name="Rectangle 404" width="0.304" height="245.206" transform="translate(156.931 0.153)" fill="#9f9f9f"/>
      <rect id="Rectangle_405" data-name="Rectangle 405" width="0.304" height="245.206" transform="translate(161.836 0.153)" fill="#9f9f9f"/>
      <rect id="Rectangle_406" data-name="Rectangle 406" width="0.304" height="245.206" transform="translate(166.74 0.153)" fill="#9f9f9f"/>
      <rect id="Rectangle_407" data-name="Rectangle 407" width="0.304" height="245.206" transform="translate(171.645 0.153)" fill="#9f9f9f"/>
      <rect id="Rectangle_408" data-name="Rectangle 408" width="0.304" height="245.206" transform="translate(176.547 0.153)" fill="#9f9f9f"/>
      <rect id="Rectangle_409" data-name="Rectangle 409" width="0.304" height="245.206" transform="translate(181.452 0.153)" fill="#9f9f9f"/>
      <rect id="Rectangle_410" data-name="Rectangle 410" width="0.304" height="245.206" transform="translate(186.357 0.153)" fill="#9f9f9f"/>
      <rect id="Rectangle_411" data-name="Rectangle 411" width="0.304" height="245.206" transform="translate(191.262 0.153)" fill="#9f9f9f"/>
      <rect id="Rectangle_412" data-name="Rectangle 412" width="0.304" height="245.206" transform="translate(196.164 0.153)" fill="#9f9f9f"/>
      <rect id="Rectangle_413" data-name="Rectangle 413" width="0.304" height="245.206" transform="translate(201.068 0.153)" fill="#9f9f9f"/>
      <rect id="Rectangle_414" data-name="Rectangle 414" width="0.304" height="245.206" transform="translate(205.973 0.153)" fill="#9f9f9f"/>
      <rect id="Rectangle_415" data-name="Rectangle 415" width="0.304" height="245.206" transform="translate(210.878 0.153)" fill="#9f9f9f"/>
      <rect id="Rectangle_416" data-name="Rectangle 416" width="0.304" height="245.206" transform="translate(215.78 0.153)" fill="#9f9f9f"/>
      <rect id="Rectangle_417" data-name="Rectangle 417" width="0.304" height="245.206" transform="translate(220.685 0.153)" fill="#9f9f9f"/>
      <rect id="Rectangle_418" data-name="Rectangle 418" width="0.304" height="245.206" transform="translate(225.589 0.153)" fill="#9f9f9f"/>
      <rect id="Rectangle_419" data-name="Rectangle 419" width="0.304" height="245.206" transform="translate(230.494 0.153)" fill="#9f9f9f"/>
      <rect id="Rectangle_420" data-name="Rectangle 420" width="0.304" height="245.206" transform="translate(235.399 0.153)" fill="#9f9f9f"/>
      <rect id="Rectangle_421" data-name="Rectangle 421" width="0.304" height="245.206" transform="translate(240.301 0.153)" fill="#9f9f9f"/>
      <rect id="Rectangle_422" data-name="Rectangle 422" width="0.304" height="245.206" transform="translate(245.206 0.153)" fill="#9f9f9f"/>
    </g>
    <path id="Path_113" data-name="Path 113" d="M32.088,33.17h-.849v2.239H29v.849h2.239V38.5h.849V36.258h2.239v-.849H32.088Z" fill="#3c3c3b"/>
    <path id="Path_114" data-name="Path 114" d="M945.268,35.409V33.17h-.849v2.239H942.18v.849h2.239V38.5h.849V36.258h2.239v-.849Z" transform="translate(-667.759)" fill="#3c3c3b"/>
    <path id="Path_115" data-name="Path 115" d="M945.268,343.35h-.849v2.239H942.18v.849h2.239v2.239h.849v-2.239h2.239v-.849h-2.239Z" transform="translate(-667.759 -226.818)" fill="#3c3c3b"/>
    <path id="Path_116" data-name="Path 116" d="M32.088,343.35h-.849v2.239H29v.849h2.239v2.239h.849v-2.239h2.239v-.849H32.088Z" transform="translate(0 -226.818)" fill="#3c3c3b"/>
    <path id="Path_117" data-name="Path 117" d="M32.088,635.43h-.849v2.239H29v.849h2.239v2.239h.849v-2.239h2.239v-.849H32.088Z" transform="translate(0 -440.4)" fill="#3c3c3b"/>
    <path id="Path_118" data-name="Path 118" d="M945.268,635.43h-.849v2.239H942.18v.849h2.239v2.239h.849v-2.239h2.239v-.849h-2.239Z" transform="translate(-667.759 -440.4)" fill="#3c3c3b"/>
    <path id="Path_119" data-name="Path 119" d="M945.268,945.61h-.849v2.239H942.18v.849h2.239v2.239h.849V948.7h2.239v-.849h-2.239Z" transform="translate(-667.759 -667.218)" fill="#3c3c3b"/>
    <g id="Group_116" data-name="Group 116" transform="translate(29 278.392)">
      <path id="Path_120" data-name="Path 120" d="M32.088,945.61h-.849v2.239H29v.849h2.239v2.239h.849V948.7h2.239v-.849H32.088Z" transform="translate(-29 -945.61)" fill="#3c3c3b"/>
    </g>
    <path id="Path_121" data-name="Path 121" d="M193.8,153.4h3.069c.927,2.013,25.2,54.761,26.4,57.951,1.161,3.1,7.756,21.562,8.388,23.333l-11.452.016-.449-6.6,2.9-.379-.618-8.458-.6-8.251h.863l-3.521-7.764-2.674-5.9-2.411-5.319-2.674-5.9-3.147-6.945h-2.612l-2.077-4.881h2.29l-6.853-15.2h-2.744Zm47.65,61.386v2.231l-1.3-2.2Zm.849,3.674-.645-1.1v-2.58l5.144-.126v4.158C245.205,218.736,243.674,218.623,242.3,218.459Zm8.514-4.107v-2l3.709.078a.914.914,0,1,1,0,1.828Zm-4.335,18.791-10.471-18.227,3.91-.1,1.543,2.618.71,1.209q4.491,7.655,8.356,14.494h-4.047ZM240,214.618c-1.172-.661-1.215-1.449.32-2.483l10.288.218v2.008Zm-4.107.1-.71-1.234,2.489-1.406.629.013.239.005,1.435.03c-1.274.941-1.363,1.8-.349,2.5Zm5.2,20.173,1.016,0v.2a.508.508,0,0,1-1.016,0Zm-4.268,0h1.016v.207a.508.508,0,0,1-1.016,0Zm-4.555,0h1.016v.207a.508.508,0,1,1-1.016,0Zm13.459.011,1.016,0v.193a.508.508,0,1,1-1.016,0Zm-13.825-.011h.161v.207a.712.712,0,0,0,1.424,0v-.207h3.131v.207a.712.712,0,0,0,1.424,0v-.2l2.846,0v.2a.712.712,0,0,0,1.424,0v-.2l.895,0v.2a.712.712,0,0,0,1.424,0v-.2l.895,0v.2a.712.712,0,1,0,1.424,0V234.9h.177v17.891h-.177V252.6a.712.712,0,1,0-1.424,0v.2l-.895,0v-.2a.712.712,0,0,0-1.424,0v.2h-.895v-.212a.712.712,0,0,0-1.424,0v.215l-2.846,0v-.218a.712.712,0,0,0-1.424,0v.218h-3.131v-.218a.712.712,0,0,0-1.424,0v.218H231.9Zm-30.53-60.781c-2-5.44-3.875-10.559-5.421-14.792h2.54l6.668,14.792Zm1.591.2,2.137,5.02L218.309,210.8l.073.177.4,5.776-2.814.094-.25-3.3-.078-1.016-.1-1.346-.075-.18h2.927l-.075-.2h-2.932c-3.131-7.6-7.582-19.372-11.777-30.676-.728-1.962-1.449-3.91-2.153-5.821h1.516Zm-10.987-24.086-.363-.624c1.742-.067,2.335-.043,3.177.624Zm1.72,2.972-1.6-2.768h2.94c.237.207.5.462.812.777.669.669,2.271.664,3.161.779a4.528,4.528,0,0,1,2.857,1.215H193.7Zm6.633.2.935,1.572q16.875,29.183,33.64,58.435l.871,1.516,10.551,18.372.726,1.4-15.182-.013c-.508-1.419-7.24-20.275-8.415-23.4-1.183-3.155-24.948-54.794-26.367-57.879h3.241Zm1.059,1.381-.822-1.379h1.47a3.418,3.418,0,0,1,.3.427l.159.25ZM212.4,173.862q-5.45-9.457-10.911-18.907l1.113-.7q6.043,9.522,11.583,18.38Zm10.1,17.555q-5-8.692-10-17.38l1.787-1.236q5.519,8.829,10.532,17Zm12.575,21.89q-6.236-10.86-12.473-21.713l2.322-1.623q6.515,10.618,12.177,20.114l1.07,1.8-.559-.011ZM210.2,198.254l.468,1.217-3.147-.328a.305.305,0,1,1,0-.61Zm33.213,36.639,1.016,0v.2a.508.508,0,1,1-1.016,0ZM215.78,204.255l-2.346-5.59L216,197.612l2.5,5.526Zm-4.762-11.347-2.346-5.59,2.247-.922,2.5,5.526Zm-.183-6.7-2.241.919-3.247-7.737h2.4Zm5.085,11.215-2.564,1.051L211.1,193.1l2.411-.989Zm2.61,13.381-2.671-6.364,2.733-1.121,3.394,7.485Zm2.706.2.594,8.162-2.671.167-.169-2.489-.4-5.84h2.645Zm73.085,33.143h2.034a.3.3,0,0,0,0-.607H294.32a.3.3,0,1,0,0,.607Zm-1.728-8.348a.69.69,0,0,0,.712-.7l.2,0,.691.011a.712.712,0,0,0,1.422.032q1.032.028,2.056.078v17.243q-1.02.048-2.056.078a.712.712,0,0,0-1.422.032l-.691.008-.2,0a.712.712,0,0,0-1.424.008l-.895.011a.712.712,0,1,0-1.424-.008l-.895.011a.712.712,0,1,0-1.424-.011l-.895.016a.712.712,0,1,0-1.424-.013l-.895.019a.712.712,0,1,0-1.424-.019l-.895.024a.712.712,0,1,0-1.424-.024l-.895.03a.7.7,0,0,0-.712-.742.689.689,0,0,0-.712.712v.073l-.895.022V252.6a.712.712,0,1,0-1.424,0v.124l-.895.016v-.14a.712.712,0,1,0-1.424,0v.161l-.895.011V252.6a.712.712,0,1,0-1.424,0v.185l-.895.005V252.6a.712.712,0,1,0-1.424,0v.2l-1.016.008a.917.917,0,0,0-.914-.93h-1.626a.913.913,0,0,0-.914.914l-1.056.016v-.21a.712.712,0,1,0-1.424,0v.226l-.895.008V252.6a.712.712,0,1,0-1.424,0v.247l-.895.005V252.6a.712.712,0,0,0-1.424,0v.261l-.895,0V252.6a.712.712,0,1,0-1.424,0v.271l-.895,0V252.6a.712.712,0,1,0-1.424,0v.274h-.892l0-.274a.712.712,0,1,0-1.424,0v.185l-.895,0V252.6a.712.712,0,0,0-1.424,0v.191h-.513V234.907l.513,0v.191a.712.712,0,0,0,1.424,0v-.185l.895,0v.183a.712.712,0,0,0,1.424,0l0-.277h.892v.277a.712.712,0,0,0,1.424,0v-.271l.895,0v.269a.712.712,0,0,0,1.424,0v-.263l.895,0v.261a.712.712,0,0,0,1.424,0v-.255l.895,0v.253a.712.712,0,0,0,1.424,0v-.245l.895.005v.239a.712.712,0,0,0,1.424,0v-.234l1.056.005a.921.921,0,0,0,.914.949h1.626a.913.913,0,0,0,.914-.914l1.016.005v.188a.712.712,0,0,0,1.424,0v-.18l.895.005v.175a.712.712,0,0,0,1.424,0v-.169l.895.005v.164a.712.712,0,1,0,1.424,0v-.156l.895.005v.148a.712.712,0,1,0,1.424,0v-.14l.895.005v.132a.712.712,0,1,0,1.424,0v-.121l.895.008v.116a.712.712,0,1,0,1.424,0V235l.895.008v.1a.712.712,0,0,0,1.424,0v-.083l.895.008v.075a.689.689,0,0,0,.712.712.673.673,0,0,0,.712-.766h.895a.7.7,0,0,0,.712.766.672.672,0,0,0,.712-.742h.895a.713.713,0,1,0,1.424.03l.895-.008A.689.689,0,0,0,292.592,235.8Zm1.728,8.143a.1.1,0,0,1-.1-.1.094.094,0,0,1,.1-.1h2.034a.1.1,0,0,1,.1.1.094.094,0,0,1-.1.1ZM248.046,234.9l1.016,0v.188a.508.508,0,1,1-1.016,0Zm2.317.005,1.016,0v.18a.508.508,0,1,1-1.016,0Zm-46.9-54.56.4,1.078-2.448-.255a.305.305,0,1,1,0-.61Zm11.984,32.388.046.61h-3.058a.3.3,0,1,1,0-.607h3.013Zm.532,4.316,2.814-.094.169,2.491.586,8.565L220,234.7l-2.736.008-.008-.785-.658-8.7-.132-1.731Zm.3,6.668.1,1.279-3.265-.339a.305.305,0,1,1,0-.61Zm13.672,11.167h1.016v.207a.508.508,0,1,1-1.016,0Zm-2.319,0h1.016v.2a.508.508,0,1,1-1.016,0Zm-2.317,0,1.016,0v.2a.508.508,0,0,1-1.016,0Zm-2.319,0,1.016,0v.2a.508.508,0,1,1-1.016,0Zm-2.317.005,1.016,0v.194a.508.508,0,1,1-1.016,0Zm-2.319.008,1.016,0v.188a.508.508,0,1,1-1.016,0v-.185Zm-1.1.183v-.183l.895,0v.183a.712.712,0,0,0,1.424,0V234.9l.895,0v.188a.712.712,0,0,0,1.424,0v-.194l.895,0v.193a.712.712,0,1,0,1.424,0v-.2l.895,0v.2a.712.712,0,0,0,1.424,0v-.2h.895v.2a.712.712,0,0,0,1.424,0v-.2h.895v.2a.712.712,0,0,0,1.424,0v-.207h.529v17.918h-.529v-.218a.712.712,0,1,0-1.424,0v.218h-.895v-.218a.712.712,0,1,0-1.424,0v.215l-.895,0v-.212a.712.712,0,1,0-1.424,0v.21l-.895,0v-.21a.712.712,0,1,0-1.424,0v.207l-.895,0v-.2a.712.712,0,1,0-1.424,0v.2l-.895,0v-.188a.712.712,0,1,0-1.424,0v.185l-.895,0v-.183a.712.712,0,1,0-1.424,0v.279l-.895,0v-.277a.712.712,0,1,0-1.424,0v.271l-.895,0v-.269a.712.712,0,1,0-1.424,0v.263l-.895,0v-.258a.712.712,0,1,0-1.424,0v.253l-.895,0v-.25a.712.712,0,1,0-1.424,0v.242l-.895-.005v-.239a.712.712,0,1,0-1.424,0v.231l-.895-.005v-.226a.712.712,0,1,0-1.424,0v.218l-.895-.005v-.212a.712.712,0,1,0-1.424,0v.2l-.895-.005v-.2a.712.712,0,1,0-1.424,0v.191l-.771-.005v-.3a.913.913,0,0,0-.914-.914h-1.615a.913.913,0,0,0-.914.914v.274l-1.056-.008v-.153a.712.712,0,1,0-1.424,0v.145l-.895-.008v-.137a.712.712,0,1,0-1.424,0v.126l-.895-.008v-.118a.712.712,0,1,0-1.424,0v.107l-.895-.008v-.1a.712.712,0,1,0-1.424,0v.086l-.895-.008v-.078a.689.689,0,0,0-.712-.712.712.712,0,0,0-.712.777h-.347V235.011h.347a.708.708,0,0,0,.712.779.689.689,0,0,0,.712-.712V235l.895-.008v.089a.712.712,0,1,0,1.424,0v-.1l.895-.008v.107a.712.712,0,1,0,1.424,0v-.118l.895-.008v.126a.712.712,0,1,0,1.424,0v-.137l.895-.008v.142a.712.712,0,0,0,1.424,0v-.153l1.056-.008v.274a.913.913,0,0,0,.914.914h1.626a.913.913,0,0,0,.914-.914v-.3l.771-.005v.191a.712.712,0,1,0,1.424,0v-.2l.895-.005v.2a.712.712,0,1,0,1.424,0v-.212l.895-.005v.218a.712.712,0,1,0,1.424,0v-.226l.895-.005v.231a.712.712,0,1,0,1.424,0v-.236l.895-.005v.242a.712.712,0,1,0,1.424,0v-.247l.895,0v.253a.712.712,0,1,0,1.424,0v-.258l.895,0v.263a.712.712,0,1,0,1.424,0v-.269l.895,0v.271a.712.712,0,1,0,1.424,0V234.8l.895,0v.28a.689.689,0,0,0,.712.712A.669.669,0,0,0,217.263,235.092ZM247,218.822v-4.171l.61-.016v4.211Zm.814.035v-4.225l6.711-.164a1.063,1.063,0,0,0,.914-.449v4.945C253.061,218.972,250.387,218.956,247.812,218.857Zm11.556-.126a3.663,3.663,0,0,0,1.1-2.537v-4.676a3.508,3.508,0,0,0-1.1-2.483,2.7,2.7,0,0,1,1.712,2.483v4.676A2.736,2.736,0,0,1,259.369,218.73Zm-.546-9.877a3.338,3.338,0,0,1,1.443,2.663v4.676a3.423,3.423,0,0,1-1.395,2.688,2.748,2.748,0,0,1-.54.056c-.83.008-1.736.016-2.693.022V208.566c.951.059,1.854.129,2.685.2A4.215,4.215,0,0,1,258.823,208.854Zm-3.386-.3v4.123a1.063,1.063,0,0,0-.914-.449l-6.711-.142v-3.7C250.382,208.338,253.053,208.413,255.437,208.555Zm-7.829-.161v3.69l-.61-.013v-3.66Zm-.814.022v3.65l-5.144-.107v-3.109A46.225,46.225,0,0,1,246.794,208.416Zm-8.377,3.475-1.037-1.744a10.945,10.945,0,0,1,4.069-1.269v3.075l-1.158-.024Zm8.866,22.806-.7-1.349h4.058l.769,1.363-1.25,0-.895,0-1.424,0Zm-28.112-15.155,2.671-.167.6,8.167-2.7.352Zm70.6,15.523,1.016.011a.49.49,0,0,1-.508.527.484.484,0,0,1-.508-.508Zm-2.319-.024,1.016.011a.5.5,0,0,1-.508.551.484.484,0,0,1-.508-.508Zm-2.317-.022,1.016.008a.5.5,0,0,1-.508.572.484.484,0,0,1-.508-.508ZM282.812,235l1.016.008v.086a.508.508,0,1,1-1.016,0Zm-2.317-.019,1.016.008v.1a.508.508,0,1,1-1.016,0Zm-2.317-.016,1.016.008v.124a.508.508,0,1,1-1.016,0Zm-2.319-.019,1.016.008v.14a.508.508,0,1,1-1.016,0Zm-2.317-.013,1.016.005v.156a.508.508,0,0,1-1.016,0Zm-2.319-.013,1.016.005v.169a.508.508,0,1,1-1.016,0Zm-2.317-.011,1.016.005v.183a.508.508,0,0,1-1.016,0Zm-6.955-.054,1.016.005v.234a.508.508,0,1,1-1.016,0Zm-2.317-.011,1.016.005v.245a.508.508,0,0,1-1.016,0Zm-2.317-.008,1.016,0v.255a.508.508,0,1,1-1.016,0ZM255,234.823l1.016,0v.263a.508.508,0,0,1-1.016,0Zm-2.317-.008,1.016,0v.274a.508.508,0,1,1-1.016,0Zm41.721.3,1.016.024a.509.509,0,0,1-1.016-.024Zm13.841,1.919h-.1v1.677h.1a5.713,5.713,0,0,1,1.263.148l.314-1.626A6.659,6.659,0,0,0,308.244,237.035Zm2.276.419-.113-.043-.314,1.629a4.289,4.289,0,0,1,1.328.8l1.228-1.126A7.017,7.017,0,0,0,310.521,237.454Zm2.639,1.755-.07-.075-1.25,1.145a4.451,4.451,0,0,1,.906,2.849v.1h1.967v-.1A5.725,5.725,0,0,0,313.16,239.209Zm-4.916,11.446a6.642,6.642,0,0,0,1.578-.2l-.314-1.626a5.713,5.713,0,0,1-1.263.148h-.1v1.677Zm2.276-.417a6.97,6.97,0,0,0,2.129-1.26l-1.228-1.126a4.373,4.373,0,0,1-1.328.8l.314,1.631Zm2.639-1.758a5.729,5.729,0,0,0,1.556-3.921v-.1h-1.967v.1a4.451,4.451,0,0,1-.906,2.849l1.25,1.145Zm4.026.279c-3.591,1.736-9.121,2.865-15.34,3.424v-1.016a.842.842,0,0,0-.922-.849c-.672.054-2.534-.145-2.534,1.11v1l-.508.027V235.235l.508.027v1c0,1.255,1.86,1.056,2.534,1.11a.841.841,0,0,0,.922-.849v-.968c6.219.511,11.75,1.639,15.34,3.376a38.559,38.559,0,0,1,0,9.828Zm-8.839-11.521a6.246,6.246,0,0,1,1.239.151l-.239,1.231a5.523,5.523,0,0,0-1-.108v-1.274Zm2.217.449a6.82,6.82,0,0,1,1.779,1.032l-.924.847a4.469,4.469,0,0,0-1.091-.653Zm2.513,1.736a5.512,5.512,0,0,1,1.432,3.607h-1.561a4.655,4.655,0,0,0-.833-2.722Zm-4.73,11.03v-1.271a5.773,5.773,0,0,0,1-.107l.239,1.231A6.525,6.525,0,0,1,308.347,250.454Zm2.217-.449-.239-1.228a4.458,4.458,0,0,0,1.091-.65l.925.847A6.761,6.761,0,0,1,310.564,250.005Zm2.513-1.736-.962-.884a4.636,4.636,0,0,0,.833-2.722h1.561A5.5,5.5,0,0,1,313.077,248.269Zm-14.486-13,.814.048v.156a.712.712,0,1,0,1.424,0l.814.062v.984a.64.64,0,0,1-.7.648c-.465-.038-2.346.169-2.346-.906Zm1.016.062,1.016.073v.07a.508.508,0,1,1-1.016,0Zm-7.014,16.757a.484.484,0,0,1,.508.5l-1.016.005A.484.484,0,0,1,292.592,252.091Zm2.825.462-1.016.024a.509.509,0,0,1,1.016-.024Zm-4.633.056-1.016.011a.508.508,0,1,1,1.016-.021Zm-2.317,0-1.016.013a.493.493,0,0,1,.508-.538.484.484,0,0,1,.508.508Zm-2.319.005-1.016.016a.5.5,0,0,1,.508-.543.484.484,0,0,1,.508.508Zm-2.317.005-1.016.022a.5.5,0,0,1,.508-.551.484.484,0,0,1,.508.508Zm-2.319.005-1.016.024a.5.5,0,0,1,.508-.562.484.484,0,0,1,.508.508Zm-2.317.008-1.016.03a.505.505,0,0,1,.508-.575.484.484,0,0,1,.508.508Zm-2.319.062-1.016.021V252.6a.508.508,0,0,1,1.016,0Zm-2.317.043-1.016.013V252.6a.508.508,0,1,1,1.016,0Zm-2.319.03-1.016.011V252.6a.508.508,0,1,1,1.016,0Zm-2.317.022-1.016.008v-.2a.508.508,0,1,1,1.016,0Zm-6.953.019-1.016.011V252.6a.508.508,0,0,1,1.016,0Zm-2.319.024-1.016.008V252.6a.508.508,0,1,1,1.016,0Zm-2.317.016-1.016.005V252.6a.508.508,0,1,1,1.016,0Zm-2.319.013-1.016,0V252.6a.508.508,0,1,1,1.016,0Zm8.417-18,3.05.019a.717.717,0,0,1-.712.728h-1.626a.713.713,0,0,1-.712-.712Zm27.652.226c.339,0,.677,0,1.016,0a.508.508,0,1,1-1.016,0Zm9.557,17.109-.814.067a.7.7,0,0,0-.712-.766.689.689,0,0,0-.712.712v.156l-.814.048v-.992c0-1.078,1.881-.871,2.346-.906a.639.639,0,0,1,.7.648Zm-1.016.083-1.016.073v-.142a.508.508,0,1,1,1.016,0Zm-78.93.5-1.016,0v-.191a.508.508,0,0,1,1.016,0Zm95.714-13.739c2.545,1.277,4.056,2.876,4.056,4.8s-1.51,3.526-4.056,4.805a27.779,27.779,0,0,0,.293-4.805A27.5,27.5,0,0,0,317.409,239.043Zm-49.926,13.766-3.05.016a.719.719,0,0,1,.712-.744h1.626a.713.713,0,0,1,.712.712v.016Zm-43.468-.024H223v-.2a.508.508,0,0,1,1.016,0Zm2.317.005-1.016,0v-.2a.508.508,0,0,1,1.016,0Zm2.317,0h-1.016v-.2a.508.508,0,1,1,1.016,0Zm2.319,0h-1.016v-.207a.508.508,0,1,1,1.016,0Zm2.317,0h-1.016v-.207a.508.508,0,1,1,1.016,0Zm4.555,0h-1.016v-.207a.508.508,0,0,1,1.016,0Zm4.271-.005-1.016,0v-.2a.508.508,0,0,1,1.016,0ZM239.7,273.019c-1.086.707-1.021,1.583.279,2.545l-1.435.03-.239.005-.629.013-2.489-1.406.71-1.234C239.906,273.072,236.143,272.981,239.7,273.019Zm-2.317,4.526,1.037-1.744,1.873-.04,1.158-.024v3.075A10.9,10.9,0,0,1,237.379,277.544Zm17.141-2.287-14.2.3c-1.545-1.043-1.492-1.836-.293-2.5l14.494.371a.914.914,0,1,1,0,1.828Zm-7.727,4.018a46.2,46.2,0,0,1-5.144-.43v-3.109l5.144-.108Zm.814.024-.61-.016v-3.66l.61-.013Zm7.829-.164c-2.384.142-5.055.218-7.625.167v-3.7l6.711-.142a1.063,1.063,0,0,0,.914-.449Zm3.935-10.175a2.739,2.739,0,0,1,1.709,2.534v4.676a2.7,2.7,0,0,1-1.712,2.483,3.509,3.509,0,0,0,1.1-2.483v-4.676A3.674,3.674,0,0,0,259.372,268.96Zm-3.733-.228c.959.005,1.862.013,2.693.022a2.993,2.993,0,0,1,.54.056,3.431,3.431,0,0,1,1.395,2.688v4.676a3.331,3.331,0,0,1-1.443,2.663,3.731,3.731,0,0,1-.5.083c-.83.075-1.733.145-2.685.2Zm-7.826.1c2.575-.1,5.249-.116,7.625-.108v4.945a1.063,1.063,0,0,0-.914-.449l-6.711-.164Zm-.814.035.61-.027v4.211l-.61-.016Zm-5.346,4.037v-2.58l.645-1.1c1.376-.161,2.908-.274,4.5-.352v4.155Zm-1.5-.035,1.3-2.2v2.228ZM220,252.991l-.454,6.684-.586,8.565-.169,2.491-2.814-.094.489-6.442.132-1.731.658-8.7.008-.785Zm-23.161,81.3H193.8l2.08-5.714h2.747l6.853-15.2h-2.29l2.077-4.881h2.612l3.147-6.942,2.674-5.9,2.411-5.319,2.674-5.9,3.521-7.767h-.863l.6-8.251.618-8.46-2.9-.379.449-6.6q5.741.016,11.452.016c-.632,1.771-7.227,20.237-8.388,23.333C222.071,279.533,197.765,332.279,196.838,334.292Zm35.035-81.282c3.787,0,15.182-.013,15.182-.013l-.726,1.4-10.551,18.372-.871,1.516q-16.79,29.235-33.64,58.435l-.935,1.572h-3.238c1.422-3.085,25.185-54.724,26.367-57.879C224.632,273.282,231.365,254.429,231.873,253.01ZM222.611,296.1q6.24-10.852,12.476-21.713l2.534,1.432.559-.011-1.07,1.8q-5.66,9.5-12.177,20.114Zm-4.236-19.391-2.916-.027.075-.18.1-1.346.078-1.016.25-3.3,2.814.094-.392,5.749Zm-5.87,36.946q5.007-8.687,10-17.378l2.317,1.618q-5.015,8.167-10.532,17ZM201.49,332.736q5.462-9.449,10.914-18.907l1.782,1.231q-5.539,8.857-11.583,18.38Zm-.043-19.356c.7-1.908,1.424-3.857,2.153-5.821l.57-1.532c4.031-10.847,8.235-21.933,11.207-29.144h2.932L205.1,308.36l-2.137,5.02Zm-5.5,15c1.54-4.222,3.413-9.345,5.421-14.792h3.789l-6.668,14.792Zm-1.161,9.089c-.841.667-1.435.691-3.177.624l.363-.624Zm7.071-2.97c-1.758,1.86-4.854.828-6.017,1.991-.312.312-.575.567-.812.777h-2.94l1.6-2.768Zm-1.3-.2.822-1.379,1.1.7-.159.25a3.419,3.419,0,0,1-.3.427Zm10.1-46.07-.468,1.217-2.679-.279a.305.305,0,1,1,0-.61Zm.352,6.56,2.405.986-2.5,5.526-2.247-.922Zm4.762-11.347,2.728,1.121-2.5,5.526-2.569-1.054Zm6.063-15.12-2.671-.164.57-8.356,2.7.352Zm-3.255,8.366.4-5.837.169-2.489,2.671.167-.594,8.162h-2.645Zm0,7.689-2.733-1.121,2.671-6.364h3.456Zm-5.085,11.215L211.1,294.6l2.258-5.38,2.564,1.051ZM205.347,308.3l3.247-7.737,2.241.919-3.091,6.816h-2.4Zm11.03-45.6-.1,1.279-3.169-.331a.305.305,0,1,1,0-.61Zm37.322-9.82h-1.016V252.6a.508.508,0,1,1,1.016,0Zm-2.319-.094-1.016,0V252.6a.508.508,0,0,1,1.016,0Zm-2.317.008-1.016,0V252.6a.508.508,0,0,1,1.016,0Zm-2.317.005-1.016,0v-.2a.508.508,0,0,1,1.016,0Zm-2.319.005-1.016,0v-.2a.508.508,0,0,1,1.016,0Zm-25.048-.011-1.016,0V252.6a.508.508,0,0,1,1.016,0v.188Zm-3.886,21.557-.046.61h-3.013a.3.3,0,1,1,0-.607h3.058Zm31.095-20,.7-1.349,4.128-.011-.769,1.36Zm-10.575,18.431,10.465-18.227h4.05q-3.866,6.841-8.356,14.494l-.71,1.209-1.543,2.618Zm-32.148,33.489-.4,1.078-2.051-.212a.305.305,0,1,1,0-.61Zm-40.378-55.1a.686.686,0,0,0-.71.656c-2-.191-4.109-.435-6.254-.7v-.615a.913.913,0,0,0-.914-.914h-2.744a.913.913,0,0,0-.914.914c-.8-.1-1.6-.21-2.389-.322v-4.558c3.7-.013,11.487-.688,11.487-1.779s-7.786-1.766-11.487-1.776v-4.558c.79-.113,1.588-.226,2.389-.336a.918.918,0,0,0,.916.927h2.744a.913.913,0,0,0,.914-.914v-.615c2.145-.269,4.257-.513,6.254-.723a.713.713,0,0,0,1.424-.038V235.7l.895-.086a.7.7,0,0,0,.712.766.687.687,0,0,0,.712-.712v-.183l.895-.075v.118a.712.712,0,1,0,1.424,0v-.226l.895-.062v.145a.712.712,0,1,0,1.424,0v-.226c.312-.013.61-.027.895-.035v.118a.712.712,0,0,0,1.424,0v-.142l.895-.008a.712.712,0,0,0,1.424,0l.895-.021a.7.7,0,0,0,.712.734.673.673,0,0,0,.712-.744l.895-.011a.7.7,0,0,0,.712.755.692.692,0,0,0,.712-.769h.347v17.625l-.347,0a.706.706,0,0,0-.712-.771.689.689,0,0,0-.712.712h-.895a.712.712,0,0,0-1.424,0H175.8a.712.712,0,0,0-1.424-.008l-.895,0v-.142a.712.712,0,1,0-1.424,0v.118c-.285-.011-.583-.022-.895-.035v-.226a.712.712,0,1,0-1.424,0v.145l-.895-.062v-.226a.712.712,0,1,0-1.424,0v.116l-.895-.075v-.183a.712.712,0,1,0-1.424,0l-.895-.07v-.073A.7.7,0,0,0,163.485,251.166Zm9.78,1.422c-.314,0-.656-.005-1.016-.016v-.126a.508.508,0,0,1,1.016,0Zm-2.319-.067-1.016-.056v-.159a.508.508,0,1,1,1.016,0v.215Zm-2.317-.148-1.016-.078v-.134a.508.508,0,1,1,1.016,0Zm-2.319-.188-1.016-.094v-.073a.508.508,0,1,1,1.016,0v.167Zm-2.317-.253-1.016-.091a.509.509,0,0,1,1.016.035v.056Zm-.508-15.609a.484.484,0,0,1-.508-.495l1.016-.1v.089A.485.485,0,0,1,163.485,236.323Zm9.78-1.22v.142a.508.508,0,0,1-1.016,0v-.126C172.61,235.111,172.948,235.1,173.265,235.1Zm-3.335.126,1.016-.056v.215a.508.508,0,1,1-1.016,0v-.159Zm-2.319.167,1.016-.078v.212a.508.508,0,0,1-1.016,0Zm-2.317.2,1.016-.094v.167a.508.508,0,1,1-1.016,0Zm-13.145,1.545c1.387-.191,2.784-.374,4.168-.548v.589a.713.713,0,0,1-.712.712h-2.744a.713.713,0,0,1-.712-.712Zm4.168,13.948c-1.384-.175-2.782-.357-4.168-.548a.722.722,0,0,1,.712-.753h2.744a.713.713,0,0,1,.712.712Zm60.741,1.787-1.016,0V252.6a.508.508,0,1,1,1.016,0v.282Zm-2.317-.005-1.016,0V252.6a.508.508,0,0,1,1.016,0Zm-2.319-.011-1.016,0V252.6a.508.508,0,1,1,1.016,0v.266Zm-2.317-.008-1.016-.005V252.6a.508.508,0,0,1,1.016,0v.258Zm-2.317-.011-1.016-.005V252.6a.508.508,0,1,1,1.016,0Zm-2.319-.011-1.016-.005V252.6a.508.508,0,1,1,1.016,0v.236Zm-2.317-.011-1.016-.005v-.22a.508.508,0,0,1,1.016,0v.226Zm-2.319-.013-1.016-.005V252.6a.508.508,0,1,1,1.016,0Zm-2.317-.013-1.016-.005V252.6a.508.508,0,1,1,1.016,0Zm-2.2-.013-3.05-.022v-.277a.713.713,0,0,1,.712-.712h1.626a.713.713,0,0,1,.712.712Zm-4.515-.032-1.016-.008V252.6a.508.508,0,1,1,1.016,0Zm-2.317-.016-1.016-.008V252.6a.508.508,0,1,1,1.016,0Zm-2.319-.021-1.016-.008V252.6a.508.508,0,0,1,1.016,0Zm-2.317-.019-1.016-.008V252.6a.508.508,0,1,1,1.016,0v.1Zm-2.319-.019-1.016-.008v-.07a.508.508,0,1,1,1.016,0Zm-2.317-.021-1.016-.011a.5.5,0,0,1,.508-.556.484.484,0,0,1,.508.508ZM177.9,252.6h-1.016a.508.508,0,1,1,1.016,0Zm-2.319,0-1.016-.005a.508.508,0,0,1,1.016.005Zm-37.131-13.26v2.991c-4.236.175-8.482.411-12.11.653l-.161.011V241.3c.344-.056.715-.11,1.115-.164l.07-.011c3.749-.5,5.475-.624,9.4-1.451l.933-.191Zm.2-.046q5.591-1.06,10.7-1.755v4.529c-3.217,0-6.953.1-10.7.253Zm-.024-.2-1.158-5.066,2.311-1.572,4.3,5.684C142.1,238.465,140.252,238.785,138.631,239.1ZM118.708,215.18l1.785,0,11.857,25.083c-1.951.3-3.585.473-4.918.65Zm19.947,33.229v-3.037c3.746.15,7.482.25,10.7.253v4.528C145.818,249.7,142.238,249.116,138.655,248.409ZM126.18,244.7c3.712.247,8,.489,12.271.664v3.013c-.562-.129-1.123-.242-1.682-.36l-.538-.11c-3.561-.728-5.316-.868-8.907-1.346-.43-.059-.8-.11-1.148-.169V244.7Zm1.771-.753h23.282c-.032.9-.5,1.473-1.768,1.473h-.11c-3.247,0-7.017-.1-10.8-.255-3.827-.156-7.668-.366-11.057-.581A.7.7,0,0,0,127.951,243.948Zm-8.917,0h8.713c-.038.365-.3.613-1.387.562l-.277-.019C123.2,244.3,120.732,244.106,119.034,243.948Zm1.524,28.563-1.849,0,8.726-25.733c1.333.175,2.967.355,4.918.65Zm19.227-17.275-2.311-1.572,1.158-5.066c1.621.309,3.467.632,5.45.954ZM125.975,243c-1.1.073-2.137.148-3.093.218.253-1.113,1.255-1.561,3.093-1.887ZM120.418,210.4a5.194,5.194,0,0,1,1.045-.03c.946.086,1.6.562,2.607,1.658h-6.426a1.335,1.335,0,0,1-.062-.849c.137-.237.556-.374,1.6-.575.465-.089.871-.159,1.228-.2Zm2.693,1.83h1.145l.419.473c1.032,1.18,9.342,12.134,14.986,19.592l-2.274,1.548Zm-3.789,0h3.545l14.394,21.8,1.166,5.109c-1.957.379-3.9.8-5.87,1.1l-11.911-25.2Zm1.075,2.749-1.758,0-.933-2.747H119.1Zm7.35,28.765h-8.713c1.7-.159,4.166-.349,7.052-.543l.277-.019C127.443,243.131,127.709,243.378,127.747,243.743Zm23.486,0H127.951a.694.694,0,0,0-.449-.634c3.389-.215,7.229-.425,11.057-.581,3.779-.153,7.552-.255,10.8-.258h.1C150.728,242.27,151.2,242.843,151.233,243.743Zm-25.258.943v1.669c-1.836-.325-2.841-.774-3.093-1.887C123.839,244.541,124.876,244.614,125.975,244.687Zm-4.461,32.632a5.191,5.191,0,0,1-1.1-.027c-.357-.043-.763-.11-1.228-.2-.234-.046-.438-.086-.615-.126a4.773,4.773,0,0,1-.642-.185c-.46-.2-.465-.47-.271-1.113h6.421A4.028,4.028,0,0,1,121.514,277.319Zm-2.416-1.857h-1.384l.121-.374.8-2.373H120.4Zm3.771,0h-3.545l1.328-2.806,11.911-25.2c1.97.3,3.913.72,5.87,1.1l-1.166,5.109Zm14.518-21.613,2.274,1.548c-5.641,7.458-13.954,18.412-14.986,19.592l-.419.473h-1.145Zm78.656-19.036,1.016,0v.282a.508.508,0,1,1-1.016,0v-.28Zm-2.317.008,1.016,0v.274a.508.508,0,1,1-1.016,0Zm-2.319.008,1.016,0v.266a.508.508,0,1,1-1.016,0v-.263Zm-2.317.011,1.016-.005v.258a.508.508,0,1,1-1.016,0v-.253Zm-2.319.011,1.016-.005v.247a.508.508,0,1,1-1.016,0Zm-2.317.011,1.016-.005v.236a.508.508,0,1,1-1.016,0v-.231Zm-2.319.013,1.016-.005v.226a.508.508,0,1,1-1.016,0v-.22Zm-2.317.013,1.016-.005v.212a.508.508,0,1,1-1.016,0Zm-2.319.013,1.016-.005v.2a.508.508,0,1,1-1.016,0Zm-4.228.03,3.05-.021v.3a.713.713,0,0,1-.712.712h-1.626a.713.713,0,0,1-.712-.712Zm-2.481.016,1.016-.008v.153a.508.508,0,1,1-1.016,0Zm-2.317.019,1.016-.008v.134a.508.508,0,0,1-1.016,0v-.126Zm-2.319.019,1.016-.008v.118a.508.508,0,1,1-1.016,0Zm-2.317.019,1.016-.008v.1a.508.508,0,0,1-1.016,0V235Zm-2.319.021,1.016-.008v.078a.508.508,0,0,1-1.016,0Zm-2.317.022,1.016-.011a.5.5,0,0,1-.508.564.484.484,0,0,1-.508-.508Zm-2.319.021,1.016-.011a.5.5,0,0,1-.508.543.484.484,0,0,1-.508-.508v-.024Zm-2.317.024,1.016-.011a.508.508,0,1,1-1.016.011Zm-13.76,8.651h-9.369a1.54,1.54,0,0,0-.836-1.457C154.453,242.4,160.287,243.028,160.806,243.743ZM150.6,245.4a1.539,1.539,0,0,0,.833-1.457H160.8C160.287,244.662,154.453,245.291,150.6,245.4Z" transform="translate(-64.738 -85.122)" fill="#3c3c3b"/>
  </g>
</svg>
