<svg xmlns="http://www.w3.org/2000/svg" width="264" height="263" viewBox="0 0 264 263">
  <g id="Group_210" data-name="Group 210" transform="translate(-1192 -274)">
    <rect id="Rectangle_217" data-name="Rectangle 217" width="264" height="263" transform="translate(1192 274)" fill="#d1ff7a"/>
    <g id="Step_02_Glasses" transform="translate(1198.832 280.832)">
      <g id="Group_108" data-name="Group 108" transform="translate(2.539 2.568)">
        <rect id="Rectangle_113" data-name="Rectangle 113" width="245.103" height="0.304" transform="translate(0.15 0)" fill="#9f9f9f"/>
        <rect id="Rectangle_114" data-name="Rectangle 114" width="245.103" height="0.304" transform="translate(0.15 4.903)" fill="#9f9f9f"/>
        <rect id="Rectangle_115" data-name="Rectangle 115" width="245.103" height="0.304" transform="translate(0.15 9.805)" fill="#9f9f9f"/>
        <rect id="Rectangle_116" data-name="Rectangle 116" width="245.103" height="0.304" transform="translate(0.15 14.708)" fill="#9f9f9f"/>
        <rect id="Rectangle_117" data-name="Rectangle 117" width="245.103" height="0.304" transform="translate(0.15 19.608)" fill="#9f9f9f"/>
        <rect id="Rectangle_118" data-name="Rectangle 118" width="245.103" height="0.304" transform="translate(0.15 24.511)" fill="#9f9f9f"/>
        <rect id="Rectangle_119" data-name="Rectangle 119" width="245.103" height="0.304" transform="translate(0.15 29.414)" fill="#9f9f9f"/>
        <rect id="Rectangle_120" data-name="Rectangle 120" width="245.103" height="0.304" transform="translate(0.15 34.316)" fill="#9f9f9f"/>
        <rect id="Rectangle_121" data-name="Rectangle 121" width="245.103" height="0.304" transform="translate(0.15 39.216)" fill="#9f9f9f"/>
        <rect id="Rectangle_122" data-name="Rectangle 122" width="245.103" height="0.304" transform="translate(0.15 44.119)" fill="#9f9f9f"/>
        <rect id="Rectangle_123" data-name="Rectangle 123" width="245.103" height="0.304" transform="translate(0.15 49.022)" fill="#9f9f9f"/>
        <rect id="Rectangle_124" data-name="Rectangle 124" width="245.103" height="0.304" transform="translate(0.15 53.924)" fill="#9f9f9f"/>
        <rect id="Rectangle_125" data-name="Rectangle 125" width="245.103" height="0.304" transform="translate(0.15 58.824)" fill="#9f9f9f"/>
        <rect id="Rectangle_126" data-name="Rectangle 126" width="245.103" height="0.304" transform="translate(0.15 63.727)" fill="#9f9f9f"/>
        <rect id="Rectangle_127" data-name="Rectangle 127" width="245.103" height="0.304" transform="translate(0.15 68.63)" fill="#9f9f9f"/>
        <rect id="Rectangle_128" data-name="Rectangle 128" width="245.103" height="0.304" transform="translate(0.15 73.533)" fill="#9f9f9f"/>
        <rect id="Rectangle_129" data-name="Rectangle 129" width="245.103" height="0.304" transform="translate(0.15 78.435)" fill="#9f9f9f"/>
        <rect id="Rectangle_130" data-name="Rectangle 130" width="245.103" height="0.304" transform="translate(0.15 83.335)" fill="#9f9f9f"/>
        <rect id="Rectangle_131" data-name="Rectangle 131" width="245.103" height="0.304" transform="translate(0.15 88.238)" fill="#9f9f9f"/>
        <rect id="Rectangle_132" data-name="Rectangle 132" width="245.103" height="0.304" transform="translate(0.15 93.141)" fill="#9f9f9f"/>
        <rect id="Rectangle_133" data-name="Rectangle 133" width="245.103" height="0.304" transform="translate(0.15 98.043)" fill="#9f9f9f"/>
        <rect id="Rectangle_134" data-name="Rectangle 134" width="245.103" height="0.304" transform="translate(0.15 102.943)" fill="#9f9f9f"/>
        <rect id="Rectangle_135" data-name="Rectangle 135" width="245.103" height="0.304" transform="translate(0.15 107.846)" fill="#9f9f9f"/>
        <rect id="Rectangle_136" data-name="Rectangle 136" width="245.103" height="0.304" transform="translate(0.15 112.749)" fill="#9f9f9f"/>
        <rect id="Rectangle_137" data-name="Rectangle 137" width="245.103" height="0.304" transform="translate(0.15 117.652)" fill="#9f9f9f"/>
        <rect id="Rectangle_138" data-name="Rectangle 138" width="245.103" height="0.304" transform="translate(0.15 122.552)" fill="#9f9f9f"/>
        <rect id="Rectangle_139" data-name="Rectangle 139" width="245.103" height="0.304" transform="translate(0.15 127.454)" fill="#9f9f9f"/>
        <rect id="Rectangle_140" data-name="Rectangle 140" width="245.103" height="0.304" transform="translate(0.15 132.357)" fill="#9f9f9f"/>
        <rect id="Rectangle_141" data-name="Rectangle 141" width="245.103" height="0.304" transform="translate(0.15 137.26)" fill="#9f9f9f"/>
        <rect id="Rectangle_142" data-name="Rectangle 142" width="245.103" height="0.304" transform="translate(0.15 142.162)" fill="#9f9f9f"/>
        <rect id="Rectangle_143" data-name="Rectangle 143" width="245.103" height="0.304" transform="translate(0.15 147.062)" fill="#9f9f9f"/>
        <rect id="Rectangle_144" data-name="Rectangle 144" width="245.103" height="0.304" transform="translate(0.15 151.965)" fill="#9f9f9f"/>
        <rect id="Rectangle_145" data-name="Rectangle 145" width="245.103" height="0.304" transform="translate(0.15 156.868)" fill="#9f9f9f"/>
        <rect id="Rectangle_146" data-name="Rectangle 146" width="245.103" height="0.304" transform="translate(0.15 161.77)" fill="#9f9f9f"/>
        <rect id="Rectangle_147" data-name="Rectangle 147" width="245.103" height="0.304" transform="translate(0.15 166.671)" fill="#9f9f9f"/>
        <rect id="Rectangle_148" data-name="Rectangle 148" width="245.103" height="0.304" transform="translate(0.15 171.573)" fill="#9f9f9f"/>
        <rect id="Rectangle_149" data-name="Rectangle 149" width="245.103" height="0.304" transform="translate(0.15 176.476)" fill="#9f9f9f"/>
        <rect id="Rectangle_150" data-name="Rectangle 150" width="245.103" height="0.304" transform="translate(0.15 181.379)" fill="#9f9f9f"/>
        <rect id="Rectangle_151" data-name="Rectangle 151" width="245.103" height="0.304" transform="translate(0.15 186.279)" fill="#9f9f9f"/>
        <rect id="Rectangle_152" data-name="Rectangle 152" width="245.103" height="0.304" transform="translate(0.15 191.181)" fill="#9f9f9f"/>
        <rect id="Rectangle_153" data-name="Rectangle 153" width="245.103" height="0.304" transform="translate(0.15 196.084)" fill="#9f9f9f"/>
        <rect id="Rectangle_154" data-name="Rectangle 154" width="245.103" height="0.304" transform="translate(0.15 200.987)" fill="#9f9f9f"/>
        <rect id="Rectangle_155" data-name="Rectangle 155" width="245.103" height="0.304" transform="translate(0.15 205.887)" fill="#9f9f9f"/>
        <rect id="Rectangle_156" data-name="Rectangle 156" width="245.103" height="0.304" transform="translate(0.15 210.79)" fill="#9f9f9f"/>
        <rect id="Rectangle_157" data-name="Rectangle 157" width="245.103" height="0.304" transform="translate(0.15 215.692)" fill="#9f9f9f"/>
        <rect id="Rectangle_158" data-name="Rectangle 158" width="245.103" height="0.304" transform="translate(0.15 220.595)" fill="#9f9f9f"/>
        <rect id="Rectangle_159" data-name="Rectangle 159" width="245.103" height="0.304" transform="translate(0.15 225.498)" fill="#9f9f9f"/>
        <rect id="Rectangle_160" data-name="Rectangle 160" width="245.103" height="0.304" transform="translate(0.15 230.398)" fill="#9f9f9f"/>
        <rect id="Rectangle_161" data-name="Rectangle 161" width="245.103" height="0.304" transform="translate(0.15 235.3)" fill="#9f9f9f"/>
        <rect id="Rectangle_162" data-name="Rectangle 162" width="245.103" height="0.304" transform="translate(0.15 240.203)" fill="#9f9f9f"/>
        <rect id="Rectangle_163" data-name="Rectangle 163" width="245.103" height="0.304" transform="translate(0.15 245.106)" fill="#9f9f9f"/>
        <rect id="Rectangle_164" data-name="Rectangle 164" width="0.304" height="245.103" transform="translate(0 0.153)" fill="#9f9f9f"/>
        <rect id="Rectangle_165" data-name="Rectangle 165" width="0.304" height="245.103" transform="translate(4.903 0.153)" fill="#9f9f9f"/>
        <rect id="Rectangle_166" data-name="Rectangle 166" width="0.304" height="245.103" transform="translate(9.803 0.153)" fill="#9f9f9f"/>
        <rect id="Rectangle_167" data-name="Rectangle 167" width="0.304" height="245.103" transform="translate(14.705 0.153)" fill="#9f9f9f"/>
        <rect id="Rectangle_168" data-name="Rectangle 168" width="0.304" height="245.103" transform="translate(19.608 0.153)" fill="#9f9f9f"/>
        <rect id="Rectangle_169" data-name="Rectangle 169" width="0.304" height="245.103" transform="translate(24.511 0.153)" fill="#9f9f9f"/>
        <rect id="Rectangle_170" data-name="Rectangle 170" width="0.304" height="245.103" transform="translate(29.411 0.153)" fill="#9f9f9f"/>
        <rect id="Rectangle_171" data-name="Rectangle 171" width="0.304" height="245.103" transform="translate(34.314 0.153)" fill="#9f9f9f"/>
        <rect id="Rectangle_172" data-name="Rectangle 172" width="0.304" height="245.103" transform="translate(39.216 0.153)" fill="#9f9f9f"/>
        <rect id="Rectangle_173" data-name="Rectangle 173" width="0.304" height="245.103" transform="translate(44.119 0.153)" fill="#9f9f9f"/>
        <rect id="Rectangle_174" data-name="Rectangle 174" width="0.304" height="245.103" transform="translate(49.019 0.153)" fill="#9f9f9f"/>
        <rect id="Rectangle_175" data-name="Rectangle 175" width="0.304" height="245.103" transform="translate(53.922 0.153)" fill="#9f9f9f"/>
        <rect id="Rectangle_176" data-name="Rectangle 176" width="0.304" height="245.103" transform="translate(58.824 0.153)" fill="#9f9f9f"/>
        <rect id="Rectangle_177" data-name="Rectangle 177" width="0.304" height="245.103" transform="translate(63.727 0.153)" fill="#9f9f9f"/>
        <rect id="Rectangle_178" data-name="Rectangle 178" width="0.304" height="245.103" transform="translate(68.63 0.153)" fill="#9f9f9f"/>
        <rect id="Rectangle_179" data-name="Rectangle 179" width="0.304" height="245.103" transform="translate(73.53 0.153)" fill="#9f9f9f"/>
        <rect id="Rectangle_180" data-name="Rectangle 180" width="0.304" height="245.103" transform="translate(78.433 0.153)" fill="#9f9f9f"/>
        <rect id="Rectangle_181" data-name="Rectangle 181" width="0.304" height="245.103" transform="translate(83.335 0.153)" fill="#9f9f9f"/>
        <rect id="Rectangle_182" data-name="Rectangle 182" width="0.304" height="245.103" transform="translate(88.238 0.153)" fill="#9f9f9f"/>
        <rect id="Rectangle_183" data-name="Rectangle 183" width="0.304" height="245.103" transform="translate(93.138 0.153)" fill="#9f9f9f"/>
        <rect id="Rectangle_184" data-name="Rectangle 184" width="0.304" height="245.103" transform="translate(98.041 0.153)" fill="#9f9f9f"/>
        <rect id="Rectangle_185" data-name="Rectangle 185" width="0.304" height="245.103" transform="translate(102.943 0.153)" fill="#9f9f9f"/>
        <rect id="Rectangle_186" data-name="Rectangle 186" width="0.304" height="245.103" transform="translate(107.846 0.153)" fill="#9f9f9f"/>
        <rect id="Rectangle_187" data-name="Rectangle 187" width="0.304" height="245.103" transform="translate(112.746 0.153)" fill="#9f9f9f"/>
        <rect id="Rectangle_188" data-name="Rectangle 188" width="0.304" height="245.103" transform="translate(117.649 0.153)" fill="#9f9f9f"/>
        <rect id="Rectangle_189" data-name="Rectangle 189" width="0.304" height="245.103" transform="translate(122.551 0.153)" fill="#9f9f9f"/>
        <rect id="Rectangle_190" data-name="Rectangle 190" width="0.304" height="245.103" transform="translate(127.454 0.153)" fill="#9f9f9f"/>
        <rect id="Rectangle_191" data-name="Rectangle 191" width="0.304" height="245.103" transform="translate(132.357 0.153)" fill="#9f9f9f"/>
        <rect id="Rectangle_192" data-name="Rectangle 192" width="0.304" height="245.103" transform="translate(137.257 0.153)" fill="#9f9f9f"/>
        <rect id="Rectangle_193" data-name="Rectangle 193" width="0.304" height="245.103" transform="translate(142.16 0.153)" fill="#9f9f9f"/>
        <rect id="Rectangle_194" data-name="Rectangle 194" width="0.304" height="245.103" transform="translate(147.062 0.153)" fill="#9f9f9f"/>
        <rect id="Rectangle_195" data-name="Rectangle 195" width="0.304" height="245.103" transform="translate(151.965 0.153)" fill="#9f9f9f"/>
        <rect id="Rectangle_196" data-name="Rectangle 196" width="0.304" height="245.103" transform="translate(156.865 0.153)" fill="#9f9f9f"/>
        <rect id="Rectangle_197" data-name="Rectangle 197" width="0.304" height="245.103" transform="translate(161.768 0.153)" fill="#9f9f9f"/>
        <rect id="Rectangle_198" data-name="Rectangle 198" width="0.304" height="245.103" transform="translate(166.67 0.153)" fill="#9f9f9f"/>
        <rect id="Rectangle_199" data-name="Rectangle 199" width="0.304" height="245.103" transform="translate(171.573 0.153)" fill="#9f9f9f"/>
        <rect id="Rectangle_200" data-name="Rectangle 200" width="0.304" height="245.103" transform="translate(176.473 0.153)" fill="#9f9f9f"/>
        <rect id="Rectangle_201" data-name="Rectangle 201" width="0.304" height="245.103" transform="translate(181.376 0.153)" fill="#9f9f9f"/>
        <rect id="Rectangle_202" data-name="Rectangle 202" width="0.304" height="245.103" transform="translate(186.279 0.153)" fill="#9f9f9f"/>
        <rect id="Rectangle_203" data-name="Rectangle 203" width="0.304" height="245.103" transform="translate(191.181 0.153)" fill="#9f9f9f"/>
        <rect id="Rectangle_204" data-name="Rectangle 204" width="0.304" height="245.103" transform="translate(196.081 0.153)" fill="#9f9f9f"/>
        <rect id="Rectangle_205" data-name="Rectangle 205" width="0.304" height="245.103" transform="translate(200.984 0.153)" fill="#9f9f9f"/>
        <rect id="Rectangle_206" data-name="Rectangle 206" width="0.304" height="245.103" transform="translate(205.887 0.153)" fill="#9f9f9f"/>
        <rect id="Rectangle_207" data-name="Rectangle 207" width="0.304" height="245.103" transform="translate(210.789 0.153)" fill="#9f9f9f"/>
        <rect id="Rectangle_208" data-name="Rectangle 208" width="0.304" height="245.103" transform="translate(215.689 0.153)" fill="#9f9f9f"/>
        <rect id="Rectangle_209" data-name="Rectangle 209" width="0.304" height="245.103" transform="translate(220.592 0.153)" fill="#9f9f9f"/>
        <rect id="Rectangle_210" data-name="Rectangle 210" width="0.304" height="245.103" transform="translate(225.495 0.153)" fill="#9f9f9f"/>
        <rect id="Rectangle_211" data-name="Rectangle 211" width="0.304" height="245.103" transform="translate(230.398 0.153)" fill="#9f9f9f"/>
        <rect id="Rectangle_212" data-name="Rectangle 212" width="0.304" height="245.103" transform="translate(235.3 0.153)" fill="#9f9f9f"/>
        <rect id="Rectangle_213" data-name="Rectangle 213" width="0.304" height="245.103" transform="translate(240.2 0.153)" fill="#9f9f9f"/>
        <rect id="Rectangle_214" data-name="Rectangle 214" width="0.304" height="245.103" transform="translate(245.103 0.153)" fill="#9f9f9f"/>
      </g>
      <path id="Path_92" data-name="Path 92" d="M32.087,33.17h-.849v2.238H29v.849h2.238v2.238h.849V36.257h2.238v-.849H32.087Z" transform="translate(-29 -33.17)" fill="#3c3c3b"/>
      <path id="Path_93" data-name="Path 93" d="M945.267,35.408V33.17h-.849v2.238H942.18v.849h2.238v2.238h.849V36.257H947.5v-.849Z" transform="translate(-696.862 -33.17)" fill="#3c3c3b"/>
      <path id="Path_94" data-name="Path 94" d="M945.267,343.35h-.849v2.238H942.18v.849h2.238v2.238h.849v-2.238H947.5v-.849h-2.238Z" transform="translate(-696.862 -260.023)" fill="#3c3c3b"/>
      <path id="Path_95" data-name="Path 95" d="M32.087,343.35h-.849v2.238H29v.849h2.238v2.238h.849v-2.238h2.238v-.849H32.087Z" transform="translate(-29 -260.023)" fill="#3c3c3b"/>
      <path id="Path_96" data-name="Path 96" d="M32.087,635.43h-.849v2.238H29v.849h2.238v2.238h.849v-2.238h2.238v-.849H32.087Z" transform="translate(-29 -473.638)" fill="#3c3c3b"/>
      <path id="Path_97" data-name="Path 97" d="M945.267,635.43h-.849v2.238H942.18v.849h2.238v2.238h.849v-2.238H947.5v-.849h-2.238Z" transform="translate(-696.862 -473.638)" fill="#3c3c3b"/>
      <path id="Path_98" data-name="Path 98" d="M945.267,945.61h-.849v2.238H942.18v.849h2.238v2.238h.849V948.7H947.5v-.849h-2.238Z" transform="translate(-696.862 -700.491)" fill="#3c3c3b"/>
      <g id="Group_109" data-name="Group 109" transform="translate(0 245.119)">
        <path id="Path_99" data-name="Path 99" d="M32.087,945.61h-.849v2.238H29v.849h2.238v2.238h.849V948.7h2.238v-.849H32.087Z" transform="translate(-29 -945.61)" fill="#3c3c3b"/>
      </g>
      <rect id="Rectangle_215" data-name="Rectangle 215" width="49.336" height="5.206" transform="translate(12.331 223.163)" fill="#3c3c3b"/>
      <rect id="Rectangle_216" data-name="Rectangle 216" width="68.944" height="5.206" transform="translate(12.331 232.966)" fill="#3c3c3b"/>
      <path id="Path_100" data-name="Path 100" d="M867.932,879.4a7.2,7.2,0,1,0-7.2-7.2,7.2,7.2,0,0,0,7.2,7.2" transform="translate(-637.293 -641.536)" fill="#3c3c3b"/>
      <path id="Path_101" data-name="Path 101" d="M794.942,879.4a7.2,7.2,0,1,0-7.2-7.2,7.2,7.2,0,0,0,7.2,7.2" transform="translate(-583.911 -641.536)" fill="#3c3c3b"/>
      <path id="Path_102" data-name="Path 102" d="M721.952,879.4a7.2,7.2,0,1,0-7.2-7.2,7.2,7.2,0,0,0,7.2,7.2" transform="translate(-530.529 -641.536)" fill="#3c3c3b"/>
      <path id="Path_103" data-name="Path 103" d="M341.938,284.165c-.774-.078-1.558-.083-2.34-.094a1.388,1.388,0,0,0-1.37.916,8.63,8.63,0,0,0-.424,1.193c-.3,1.1-.58,2.2-.835,3.312a2.345,2.345,0,0,1-.787,1.292,37.7,37.7,0,0,1-12.47,7.329,191.092,191.092,0,0,1-23.659,6.649c-2.673.578-5.376,1.024-8.078,1.467-.2.03-.406.062-.618.1-.9.148-1.792.3-2.686.449a39.621,39.621,0,0,1-5.644.548q-.83-.085-1.658-.18c-3.24-.371-6.464-.846-9.663-1.507q-16.727-3.445-33.473-6.81a172.322,172.322,0,0,0-17.172-2.608c-6.676-.642-13.362-1.144-20.073-1.246a19.928,19.928,0,0,1-2.528-.212,7.575,7.575,0,0,1-4.653-2.442,13.441,13.441,0,0,0-2.431-2.087c-4.344-2.872-8.677-5.768-13.107-8.5-4.65-2.872-9.411-5.572-14.12-8.349-.287-.169-.561-.357-.841-.535l.056-.2c1.271-.25,2.536-.532,3.815-.741a57.95,57.95,0,0,0,14.015-4.067,109.629,109.629,0,0,1,26.528-7.777,43.57,43.57,0,0,1,13.419-.185,106.8,106.8,0,0,1,20.941,5.421c.164.059.328.126.505.2,1.179.379,4.309.895,8.188-2.324l1.075-.97a3.225,3.225,0,0,0,.991-1.644,1.435,1.435,0,0,0-.473-1.582,5.776,5.776,0,0,0-2.926-1.472c-2.1-.258-4.193-.545-6.3-.744-3.952-.376-7.914-.655-11.863-1.053a184.407,184.407,0,0,0-20.379-.935c-2.539.027-5.085.064-7.611.282q-9.973.866-19.928,1.907c-3.2.333-6.423.664-9.574,1.292-11.866,2.224-18.644,3.839-22.5,4.983l-.634.159a.5.5,0,0,0,.067.013c-5.424,1.668-4.322,2.265-4.322,2.265a1.207,1.207,0,0,0-.535,1.077c-.011,1.66-.094,3.32-.075,4.981a15.188,15.188,0,0,0,.293,2.4c.2,1.152.521,2.289.655,3.447q.093.79.172,1.582a70.213,70.213,0,0,0,3.764,26,26.852,26.852,0,0,0,2.189,5.239c.169.306.344.61.521.911a42.219,42.219,0,0,0,6.971,9.73c4.384,4.631,10.963,9.311,19.291,8.588a10.817,10.817,0,0,0,5.534-2.606,24.47,24.47,0,0,0,6.587-8.975,14.671,14.671,0,0,0,1.212-7.909c-.129-.9-.255-1.808-.312-2.713a10.363,10.363,0,0,1-.011-2.579v-.116l.016.005c.175-1.05.645-1.969,1.77-1.789,1.832.29,4.18,1.354,6.668,5.83a6.246,6.246,0,0,1,.594,1.064c.1.226.2.449.3.674a45.255,45.255,0,0,1,1.741,4.287c1.786,4.959,3.487,9.948,5.287,14.9a47.541,47.541,0,0,0,4.355,9.153,23.1,23.1,0,0,0,4.279,5.1l0,.005.013.008a19.936,19.936,0,0,0,2.856,2.1c1.257.76,2.531,1.5,3.8,2.238,3.976,2.208,18.3,9.325,33.7,6.746.07-.013.14-.03.207-.043.967-.212,1.945-.384,2.907-.613.137-.035.271-.067.4-.1.228-.059.457-.121.682-.188a11.991,11.991,0,0,0,5.515-3.189,19.464,19.464,0,0,0,2.893-4.274,106.78,106.78,0,0,0,5.155-12.435c1.152-3.076,2.364-6.133,3.5-9.214a3.82,3.82,0,0,1,2.069-2.345l2.152-.416a2.912,2.912,0,0,0,.387-.075l4.3-.835c5.969-1.169,11.917-2.439,17.827-3.887a36.108,36.108,0,0,0,12.763-5.875A160.135,160.135,0,0,0,335.875,297.3a10.179,10.179,0,0,1,1-.927,1.437,1.437,0,0,1,.787-.269,4.387,4.387,0,0,0,4.406-3.777c.32-1.891.626-3.788.935-5.682a7.99,7.99,0,0,0,.159-1.058C343.182,284.688,342.825,284.256,341.938,284.165Zm-156.073,24.1a85.921,85.921,0,0,1-4.118,13.319,21.263,21.263,0,0,1-1.093,2.289,6.139,6.139,0,0,1-3.971,2.926,5.037,5.037,0,0,1-2.6-.116,18.664,18.664,0,0,1-5.2-2.181,36.044,36.044,0,0,1-8.76-7.253l-2.262-2.923a34.2,34.2,0,0,1-4.408-9.118,80.647,80.647,0,0,1-2.45-10.84c-.328-1.929-.642-3.86-.887-5.8-.032-.959-.153-2.332-.4-4.263-.107-1.867-.215-3.737-.21-5.607.365-4.559,2.2-5.7,2.541-5.875a7.605,7.605,0,0,1,4.344,1.233c7.275,3.949,16.059,9.451,16.059,9.451h0a54.568,54.568,0,0,1,9.093,6.49c1.032.943,2.009,1.948,2.95,2.982a8.913,8.913,0,0,1,2.262,5.889A37.376,37.376,0,0,1,185.866,308.262Zm86.852,7.581c-.559,5.171-.768,11.283-2.1,14.759v0a80.944,80.944,0,0,1-2.555,8.578,36.4,36.4,0,0,1-3.054,6.641c-.032.056-.07.11-.1.167a10.841,10.841,0,0,1-8.121,5.62,40.741,40.741,0,0,1-10.38.4l-.04,0c-.132-.011-.263-.024-.395-.038-6.888-.666-20.218-3.409-29-14.45a48.45,48.45,0,0,1-4.306-7.8c-.027-.059-.054-.116-.081-.177-.035-.081-.073-.161-.11-.242-.013-.03-.024-.056-.038-.086-2.883-6.533-4.629-16.935-4.629-16.935h0c-.056-.424-.126-.876-.207-1.362-.185-1.932-.258-3.557-.282-4.752.32-3.833,2.192-4.779,2.837-4.994.073-.021.142-.04.218-.056a26.145,26.145,0,0,1,4.331-.637,46.613,46.613,0,0,1,10.877.854c5.126.895,10.235,1.891,15.35,2.85.279.054.5.1.672.148,7.992,1.553,24.148,4.72,25.873,5.3C269.784,310.392,273.279,310.671,272.717,315.843Z" transform="translate(-114.415 -195.228)" fill="#3c3c3b"/>
    </g>
  </g>
</svg>
