<svg xmlns="http://www.w3.org/2000/svg" width="250.474" height="250.276" viewBox="0 0 250.474 250.276">
  <g id="Step_04_Tools" transform="translate(-29 -33.17)">
    <g id="Group_117" data-name="Group 117" transform="translate(31.537 35.736)">
      <rect id="Rectangle_423" data-name="Rectangle 423" width="244.939" height="0.303" transform="translate(0.15)" fill="#9f9f9f"/>
      <rect id="Rectangle_424" data-name="Rectangle 424" width="244.939" height="0.303" transform="translate(0.15 4.899)" fill="#9f9f9f"/>
      <rect id="Rectangle_425" data-name="Rectangle 425" width="244.939" height="0.303" transform="translate(0.15 9.799)" fill="#9f9f9f"/>
      <rect id="Rectangle_426" data-name="Rectangle 426" width="244.939" height="0.303" transform="translate(0.15 14.698)" fill="#9f9f9f"/>
      <rect id="Rectangle_427" data-name="Rectangle 427" width="244.939" height="0.303" transform="translate(0.15 19.595)" fill="#9f9f9f"/>
      <rect id="Rectangle_428" data-name="Rectangle 428" width="244.939" height="0.303" transform="translate(0.15 24.494)" fill="#9f9f9f"/>
      <rect id="Rectangle_429" data-name="Rectangle 429" width="244.939" height="0.303" transform="translate(0.15 29.394)" fill="#9f9f9f"/>
      <rect id="Rectangle_430" data-name="Rectangle 430" width="244.939" height="0.303" transform="translate(0.15 34.293)" fill="#9f9f9f"/>
      <rect id="Rectangle_431" data-name="Rectangle 431" width="244.939" height="0.303" transform="translate(0.15 39.19)" fill="#9f9f9f"/>
      <rect id="Rectangle_432" data-name="Rectangle 432" width="244.939" height="0.303" transform="translate(0.15 44.089)" fill="#9f9f9f"/>
      <rect id="Rectangle_433" data-name="Rectangle 433" width="244.939" height="0.303" transform="translate(0.15 48.989)" fill="#9f9f9f"/>
      <rect id="Rectangle_434" data-name="Rectangle 434" width="244.939" height="0.303" transform="translate(0.15 53.888)" fill="#9f9f9f"/>
      <rect id="Rectangle_435" data-name="Rectangle 435" width="244.939" height="0.303" transform="translate(0.15 58.785)" fill="#9f9f9f"/>
      <rect id="Rectangle_436" data-name="Rectangle 436" width="244.939" height="0.303" transform="translate(0.15 63.684)" fill="#9f9f9f"/>
      <rect id="Rectangle_437" data-name="Rectangle 437" width="244.939" height="0.303" transform="translate(0.15 68.584)" fill="#9f9f9f"/>
      <rect id="Rectangle_438" data-name="Rectangle 438" width="244.939" height="0.303" transform="translate(0.15 73.483)" fill="#9f9f9f"/>
      <rect id="Rectangle_439" data-name="Rectangle 439" width="244.939" height="0.303" transform="translate(0.15 78.383)" fill="#9f9f9f"/>
      <rect id="Rectangle_440" data-name="Rectangle 440" width="244.939" height="0.303" transform="translate(0.15 83.279)" fill="#9f9f9f"/>
      <rect id="Rectangle_441" data-name="Rectangle 441" width="244.939" height="0.303" transform="translate(0.15 88.179)" fill="#9f9f9f"/>
      <rect id="Rectangle_442" data-name="Rectangle 442" width="244.939" height="0.303" transform="translate(0.15 93.078)" fill="#9f9f9f"/>
      <rect id="Rectangle_443" data-name="Rectangle 443" width="244.939" height="0.303" transform="translate(0.15 97.978)" fill="#9f9f9f"/>
      <rect id="Rectangle_444" data-name="Rectangle 444" width="244.939" height="0.303" transform="translate(0.15 102.874)" fill="#9f9f9f"/>
      <rect id="Rectangle_445" data-name="Rectangle 445" width="244.939" height="0.303" transform="translate(0.15 107.774)" fill="#9f9f9f"/>
      <rect id="Rectangle_446" data-name="Rectangle 446" width="244.939" height="0.303" transform="translate(0.15 112.673)" fill="#9f9f9f"/>
      <rect id="Rectangle_447" data-name="Rectangle 447" width="244.939" height="0.303" transform="translate(0.15 117.573)" fill="#9f9f9f"/>
      <rect id="Rectangle_448" data-name="Rectangle 448" width="244.939" height="0.303" transform="translate(0.15 122.469)" fill="#9f9f9f"/>
      <rect id="Rectangle_449" data-name="Rectangle 449" width="244.939" height="0.303" transform="translate(0.15 127.369)" fill="#9f9f9f"/>
      <rect id="Rectangle_450" data-name="Rectangle 450" width="244.939" height="0.303" transform="translate(0.15 132.268)" fill="#9f9f9f"/>
      <rect id="Rectangle_451" data-name="Rectangle 451" width="244.939" height="0.303" transform="translate(0.15 137.168)" fill="#9f9f9f"/>
      <rect id="Rectangle_452" data-name="Rectangle 452" width="244.939" height="0.303" transform="translate(0.15 142.067)" fill="#9f9f9f"/>
      <rect id="Rectangle_453" data-name="Rectangle 453" width="244.939" height="0.303" transform="translate(0.15 146.964)" fill="#9f9f9f"/>
      <rect id="Rectangle_454" data-name="Rectangle 454" width="244.939" height="0.303" transform="translate(0.15 151.863)" fill="#9f9f9f"/>
      <rect id="Rectangle_455" data-name="Rectangle 455" width="244.939" height="0.303" transform="translate(0.15 156.763)" fill="#9f9f9f"/>
      <rect id="Rectangle_456" data-name="Rectangle 456" width="244.939" height="0.303" transform="translate(0.15 161.662)" fill="#9f9f9f"/>
      <rect id="Rectangle_457" data-name="Rectangle 457" width="244.939" height="0.303" transform="translate(0.15 166.559)" fill="#9f9f9f"/>
      <rect id="Rectangle_458" data-name="Rectangle 458" width="244.939" height="0.303" transform="translate(0.15 171.458)" fill="#9f9f9f"/>
      <rect id="Rectangle_459" data-name="Rectangle 459" width="244.939" height="0.303" transform="translate(0.15 176.358)" fill="#9f9f9f"/>
      <rect id="Rectangle_460" data-name="Rectangle 460" width="244.939" height="0.303" transform="translate(0.15 181.257)" fill="#9f9f9f"/>
      <rect id="Rectangle_461" data-name="Rectangle 461" width="244.939" height="0.303" transform="translate(0.15 186.154)" fill="#9f9f9f"/>
      <rect id="Rectangle_462" data-name="Rectangle 462" width="244.939" height="0.303" transform="translate(0.15 191.053)" fill="#9f9f9f"/>
      <rect id="Rectangle_463" data-name="Rectangle 463" width="244.939" height="0.303" transform="translate(0.15 195.953)" fill="#9f9f9f"/>
      <rect id="Rectangle_464" data-name="Rectangle 464" width="244.939" height="0.303" transform="translate(0.15 200.852)" fill="#9f9f9f"/>
      <rect id="Rectangle_465" data-name="Rectangle 465" width="244.939" height="0.303" transform="translate(0.15 205.749)" fill="#9f9f9f"/>
      <rect id="Rectangle_466" data-name="Rectangle 466" width="244.939" height="0.303" transform="translate(0.15 210.648)" fill="#9f9f9f"/>
      <rect id="Rectangle_467" data-name="Rectangle 467" width="244.939" height="0.303" transform="translate(0.15 215.548)" fill="#9f9f9f"/>
      <rect id="Rectangle_468" data-name="Rectangle 468" width="244.939" height="0.303" transform="translate(0.15 220.447)" fill="#9f9f9f"/>
      <rect id="Rectangle_469" data-name="Rectangle 469" width="244.939" height="0.303" transform="translate(0.15 225.346)" fill="#9f9f9f"/>
      <rect id="Rectangle_470" data-name="Rectangle 470" width="244.939" height="0.303" transform="translate(0.15 230.243)" fill="#9f9f9f"/>
      <rect id="Rectangle_471" data-name="Rectangle 471" width="244.939" height="0.303" transform="translate(0.15 235.143)" fill="#9f9f9f"/>
      <rect id="Rectangle_472" data-name="Rectangle 472" width="244.939" height="0.303" transform="translate(0.15 240.042)" fill="#9f9f9f"/>
      <rect id="Rectangle_473" data-name="Rectangle 473" width="244.939" height="0.303" transform="translate(0.15 244.941)" fill="#9f9f9f"/>
      <rect id="Rectangle_474" data-name="Rectangle 474" width="0.303" height="244.939" transform="translate(0 0.153)" fill="#9f9f9f"/>
      <rect id="Rectangle_475" data-name="Rectangle 475" width="0.303" height="244.939" transform="translate(4.899 0.153)" fill="#9f9f9f"/>
      <rect id="Rectangle_476" data-name="Rectangle 476" width="0.303" height="244.939" transform="translate(9.796 0.153)" fill="#9f9f9f"/>
      <rect id="Rectangle_477" data-name="Rectangle 477" width="0.303" height="244.939" transform="translate(14.696 0.153)" fill="#9f9f9f"/>
      <rect id="Rectangle_478" data-name="Rectangle 478" width="0.303" height="244.939" transform="translate(19.595 0.153)" fill="#9f9f9f"/>
      <rect id="Rectangle_479" data-name="Rectangle 479" width="0.303" height="244.939" transform="translate(24.494 0.153)" fill="#9f9f9f"/>
      <rect id="Rectangle_480" data-name="Rectangle 480" width="0.303" height="244.939" transform="translate(29.391 0.153)" fill="#9f9f9f"/>
      <rect id="Rectangle_481" data-name="Rectangle 481" width="0.303" height="244.939" transform="translate(34.291 0.153)" fill="#9f9f9f"/>
      <rect id="Rectangle_482" data-name="Rectangle 482" width="0.303" height="244.939" transform="translate(39.19 0.153)" fill="#9f9f9f"/>
      <rect id="Rectangle_483" data-name="Rectangle 483" width="0.303" height="244.939" transform="translate(44.089 0.153)" fill="#9f9f9f"/>
      <rect id="Rectangle_484" data-name="Rectangle 484" width="0.303" height="244.939" transform="translate(48.986 0.153)" fill="#9f9f9f"/>
      <rect id="Rectangle_485" data-name="Rectangle 485" width="0.303" height="244.939" transform="translate(53.886 0.153)" fill="#9f9f9f"/>
      <rect id="Rectangle_486" data-name="Rectangle 486" width="0.303" height="244.939" transform="translate(58.785 0.153)" fill="#9f9f9f"/>
      <rect id="Rectangle_487" data-name="Rectangle 487" width="0.303" height="244.939" transform="translate(63.684 0.153)" fill="#9f9f9f"/>
      <rect id="Rectangle_488" data-name="Rectangle 488" width="0.303" height="244.939" transform="translate(68.584 0.153)" fill="#9f9f9f"/>
      <rect id="Rectangle_489" data-name="Rectangle 489" width="0.303" height="244.939" transform="translate(73.481 0.153)" fill="#9f9f9f"/>
      <rect id="Rectangle_490" data-name="Rectangle 490" width="0.303" height="244.939" transform="translate(78.38 0.153)" fill="#9f9f9f"/>
      <rect id="Rectangle_491" data-name="Rectangle 491" width="0.303" height="244.939" transform="translate(83.279 0.153)" fill="#9f9f9f"/>
      <rect id="Rectangle_492" data-name="Rectangle 492" width="0.303" height="244.939" transform="translate(88.179 0.153)" fill="#9f9f9f"/>
      <rect id="Rectangle_493" data-name="Rectangle 493" width="0.303" height="244.939" transform="translate(93.076 0.153)" fill="#9f9f9f"/>
      <rect id="Rectangle_494" data-name="Rectangle 494" width="0.303" height="244.939" transform="translate(97.975 0.153)" fill="#9f9f9f"/>
      <rect id="Rectangle_495" data-name="Rectangle 495" width="0.303" height="244.939" transform="translate(102.874 0.153)" fill="#9f9f9f"/>
      <rect id="Rectangle_496" data-name="Rectangle 496" width="0.303" height="244.939" transform="translate(107.774 0.153)" fill="#9f9f9f"/>
      <rect id="Rectangle_497" data-name="Rectangle 497" width="0.303" height="244.939" transform="translate(112.671 0.153)" fill="#9f9f9f"/>
      <rect id="Rectangle_498" data-name="Rectangle 498" width="0.303" height="244.939" transform="translate(117.57 0.153)" fill="#9f9f9f"/>
      <rect id="Rectangle_499" data-name="Rectangle 499" width="0.303" height="244.939" transform="translate(122.469 0.153)" fill="#9f9f9f"/>
      <rect id="Rectangle_500" data-name="Rectangle 500" width="0.303" height="244.939" transform="translate(127.369 0.153)" fill="#9f9f9f"/>
      <rect id="Rectangle_501" data-name="Rectangle 501" width="0.303" height="244.939" transform="translate(132.268 0.153)" fill="#9f9f9f"/>
      <rect id="Rectangle_502" data-name="Rectangle 502" width="0.303" height="244.939" transform="translate(137.165 0.153)" fill="#9f9f9f"/>
      <rect id="Rectangle_503" data-name="Rectangle 503" width="0.303" height="244.939" transform="translate(142.064 0.153)" fill="#9f9f9f"/>
      <rect id="Rectangle_504" data-name="Rectangle 504" width="0.303" height="244.939" transform="translate(146.964 0.153)" fill="#9f9f9f"/>
      <rect id="Rectangle_505" data-name="Rectangle 505" width="0.303" height="244.939" transform="translate(151.863 0.153)" fill="#9f9f9f"/>
      <rect id="Rectangle_506" data-name="Rectangle 506" width="0.303" height="244.939" transform="translate(156.76 0.153)" fill="#9f9f9f"/>
      <rect id="Rectangle_507" data-name="Rectangle 507" width="0.303" height="244.939" transform="translate(161.659 0.153)" fill="#9f9f9f"/>
      <rect id="Rectangle_508" data-name="Rectangle 508" width="0.303" height="244.939" transform="translate(166.559 0.153)" fill="#9f9f9f"/>
      <rect id="Rectangle_509" data-name="Rectangle 509" width="0.303" height="244.939" transform="translate(171.458 0.153)" fill="#9f9f9f"/>
      <rect id="Rectangle_510" data-name="Rectangle 510" width="0.303" height="244.939" transform="translate(176.355 0.153)" fill="#9f9f9f"/>
      <rect id="Rectangle_511" data-name="Rectangle 511" width="0.303" height="244.939" transform="translate(181.254 0.153)" fill="#9f9f9f"/>
      <rect id="Rectangle_512" data-name="Rectangle 512" width="0.303" height="244.939" transform="translate(186.154 0.153)" fill="#9f9f9f"/>
      <rect id="Rectangle_513" data-name="Rectangle 513" width="0.303" height="244.939" transform="translate(191.053 0.153)" fill="#9f9f9f"/>
      <rect id="Rectangle_514" data-name="Rectangle 514" width="0.303" height="244.939" transform="translate(195.95 0.153)" fill="#9f9f9f"/>
      <rect id="Rectangle_515" data-name="Rectangle 515" width="0.303" height="244.939" transform="translate(200.849 0.153)" fill="#9f9f9f"/>
      <rect id="Rectangle_516" data-name="Rectangle 516" width="0.303" height="244.939" transform="translate(205.749 0.153)" fill="#9f9f9f"/>
      <rect id="Rectangle_517" data-name="Rectangle 517" width="0.303" height="244.939" transform="translate(210.648 0.153)" fill="#9f9f9f"/>
      <rect id="Rectangle_518" data-name="Rectangle 518" width="0.303" height="244.939" transform="translate(215.545 0.153)" fill="#9f9f9f"/>
      <rect id="Rectangle_519" data-name="Rectangle 519" width="0.303" height="244.939" transform="translate(220.444 0.153)" fill="#9f9f9f"/>
      <rect id="Rectangle_520" data-name="Rectangle 520" width="0.303" height="244.939" transform="translate(225.344 0.153)" fill="#9f9f9f"/>
      <rect id="Rectangle_521" data-name="Rectangle 521" width="0.303" height="244.939" transform="translate(230.243 0.153)" fill="#9f9f9f"/>
      <rect id="Rectangle_522" data-name="Rectangle 522" width="0.303" height="244.939" transform="translate(235.143 0.153)" fill="#9f9f9f"/>
      <rect id="Rectangle_523" data-name="Rectangle 523" width="0.303" height="244.939" transform="translate(240.039 0.153)" fill="#9f9f9f"/>
      <rect id="Rectangle_524" data-name="Rectangle 524" width="0.303" height="244.939" transform="translate(244.939 0.153)" fill="#9f9f9f"/>
    </g>
    <path id="Path_122" data-name="Path 122" d="M32.085,33.17h-.848v2.236H29v.848h2.236v2.236h.848V36.255h2.236v-.848H32.085Z" fill="#3c3c3b"/>
    <path id="Path_123" data-name="Path 123" d="M945.265,35.406V33.17h-.848v2.236H942.18v.848h2.236v2.236h.848V36.255H947.5v-.848Z" transform="translate(-668.026)" fill="#3c3c3b"/>
    <path id="Path_124" data-name="Path 124" d="M945.265,343.35h-.848v2.236H942.18v.848h2.236v2.236h.848v-2.236H947.5v-.848h-2.236Z" transform="translate(-668.026 -226.909)" fill="#3c3c3b"/>
    <path id="Path_125" data-name="Path 125" d="M32.085,343.35h-.848v2.236H29v.848h2.236v2.236h.848v-2.236h2.236v-.848H32.085Z" transform="translate(0 -226.909)" fill="#3c3c3b"/>
    <path id="Path_126" data-name="Path 126" d="M32.085,635.43h-.848v2.236H29v.848h2.236v2.236h.848v-2.236h2.236v-.848H32.085Z" transform="translate(0 -440.576)" fill="#3c3c3b"/>
    <path id="Path_127" data-name="Path 127" d="M945.265,635.43h-.848v2.236H942.18v.848h2.236v2.236h.848v-2.236H947.5v-.848h-2.236Z" transform="translate(-668.026 -440.576)" fill="#3c3c3b"/>
    <path id="Path_128" data-name="Path 128" d="M945.265,945.61h-.848v2.236H942.18v.848h2.236v2.236h.848v-2.236H947.5v-.848h-2.236Z" transform="translate(-668.026 -667.485)" fill="#3c3c3b"/>
    <g id="Group_118" data-name="Group 118" transform="translate(29 278.125)">
      <path id="Path_129" data-name="Path 129" d="M32.085,945.61h-.848v2.236H29v.848h2.236v2.236h.848v-2.236h2.236v-.848H32.085Z" transform="translate(-29 -945.61)" fill="#3c3c3b"/>
    </g>
    <g id="Group_119" data-name="Group 119" transform="translate(77.492 82.5)">
      <path id="Path_130" data-name="Path 130" d="M210.349,375.727c-.226.907-.719,2.883-.719,2.883l3.377-.886,3.46-3.471Zm18.438-18.851-3.356,3.369L232,358.661l3.358-3.369Zm137.1-134.333c-5.544-5.353-12.513-7.208-15.568-4.142l-.813.819s7.042,6.8-1.893,16.6a21.229,21.229,0,0,1-3.431,3.13,2.884,2.884,0,0,0-1.544.8l-.37.373a2.066,2.066,0,0,0-.274,2.679l.215.209c-.054.056-5.571,5.487-12.07,2.532L305.28,234.511l-.193-.075a15.453,15.453,0,0,0-15.369,3.291,4.15,4.15,0,0,0-5.8.062l-13.925,13.984a4,4,0,0,0,.054,5.718l.032.032-.953.958c-.494.483-4.722,5.031-1.989,15.82l8.475,27.133A10.061,10.061,0,0,1,273.755,311l-3.573,3.587-1.211-1.168s-1.294-.956-2.188-.051l-5.836,5.858a3.574,3.574,0,0,0-2.022,1.146s-5.769.685-8.569,7.8c0,0-2.84,6.607-1.925,7.49l.754.728-19.039,19.117,6.567-1.587,15.015-15.074.668.642c.915.883,7.568-2.04,7.568-2.04,7.173-2.9,7.756-8.588,7.756-8.588a3.469,3.469,0,0,0,1.125-2.008l5.839-5.861c.9-.9-.1-2.153-.1-2.153l-1.044-1,3.627-3.646a14.651,14.651,0,0,0,2.94-14.1l-8.424-26.962a17.959,17.959,0,0,1-.362-8.865,6.5,6.5,0,0,1,1.16-2.529l.958-.961v0a4.155,4.155,0,0,0,5.807-.056l13.928-13.987a4,4,0,0,0-.059-5.716l-.038-.038a10.7,10.7,0,0,1,10.365-2.188l24.736,10.977c9.453,4.293,17.061-3.181,17.38-3.5l.207.2a2.15,2.15,0,0,0,2.717-.322l.37-.373a2.849,2.849,0,0,0,.787-1.514c.387-.932,3.12-3.45,3.12-3.45,9.772-8.985,16.811-2.188,16.811-2.188l.813-.819c3.06-3.079,1.042-9.9-4.5-15.257M214.618,371.1l-3.356,3.369,6.567-1.584,3.353-3.369Zm4.728-4.744-3.361,3.372,6.564-1.584,3.358-3.372Zm11.283-6.32-3.356,3.369-6.564,1.581,3.353-3.366Z" transform="translate(-209.63 -216.922)" fill="#3c3c3b"/>
    </g>
  </g>
</svg>
